<svg width="96" height="96" viewBox="0 0 96 96" fill="none" xmlns="http://www.w3.org/2000/svg">
<path d="M96 59.4329C95.3324 60.7684 94.2643 61.3027 92.7955 61.1691C92.1547 61.1157 91.4871 61.1691 90.7394 61.1691C90.7394 61.6232 90.7394 61.9971 90.7394 62.3444C90.7394 70.5981 90.7394 78.8519 90.7394 87.1057C90.7394 89.296 89.8581 90.1775 87.6684 90.1775C81.2061 90.1775 74.7438 90.1775 68.2548 90.1775C67.8809 90.1775 67.4003 90.2309 67.1599 90.0172C66.7594 89.6699 66.252 89.1357 66.252 88.7083C66.252 88.2542 66.7861 87.7467 67.1866 87.3995C67.427 87.2125 67.9076 87.2659 68.2815 87.2659C74.3967 87.2659 80.5385 87.2659 86.6537 87.2659C87.0275 87.2659 87.3747 87.2659 87.8019 87.2659C87.8019 78.5314 87.8019 69.9304 87.8019 61.1691C87.3747 61.1691 87.0008 61.1691 86.6003 61.1691C67.9343 61.1691 49.2951 61.1691 30.6292 61.1691C30.2554 61.1691 29.8815 61.1958 29.5076 61.1424C28.7065 61.0355 28.2793 60.5547 28.2793 59.7534C28.2793 58.9521 28.7332 58.4713 29.5076 58.3377C29.8014 58.2843 30.1218 58.311 30.4423 58.311C50.8974 58.311 71.3791 58.311 91.8342 58.311C92.2348 58.311 92.6353 58.311 93.0893 58.311C93.0893 56.9487 93.0893 55.6666 93.0893 54.3043C63.0209 54.3043 32.9524 54.3043 2.8306 54.3043C2.8306 55.6399 2.8306 56.8953 2.8306 58.311C3.15104 58.311 3.49819 58.311 3.81864 58.311C10.0139 58.311 16.1825 58.311 22.3777 58.311C22.6715 58.311 22.9385 58.2843 23.2323 58.311C24.0067 58.3911 24.5942 59.0322 24.514 59.7801C24.4339 60.5547 24.0067 61.0355 23.2056 61.1157C22.8851 61.1424 22.5914 61.1424 22.2709 61.1424C17.9182 61.1424 13.5922 61.1424 9.2395 61.1424C8.89235 61.1424 8.57191 61.1424 8.17135 61.1424C8.17135 69.8502 8.17135 78.4512 8.17135 87.1858C8.57191 87.2125 8.97246 87.2392 9.34631 87.2392C26.2765 87.2392 43.2067 87.2392 60.1369 87.2392C60.5374 87.2392 60.9647 87.2392 61.3385 87.3461C61.9794 87.5063 62.3533 87.9337 62.38 88.6015C62.4067 89.3227 62.0862 89.8035 61.4186 90.0172C61.0982 90.124 60.751 90.1507 60.4039 90.1507C42.993 90.1507 25.6089 90.1507 8.19805 90.1507C6.14186 90.1507 5.23394 89.2426 5.23394 87.1858C5.23394 78.932 5.23394 70.6783 5.23394 62.4245C5.23394 62.0506 5.23394 61.6766 5.23394 61.1424C4.35271 61.1424 3.5249 61.1424 2.69708 61.1424C0.907928 61.1157 0 60.2075 0 58.3644C0 56.8953 0 55.4262 0 53.9571C0 52.4345 0.988039 51.4462 2.51015 51.3928C3.39138 51.3661 4.2459 51.3928 5.26064 51.3928C5.26064 50.9654 5.26064 50.6182 5.26064 50.2442C5.26064 41.5898 5.26064 32.9354 5.26064 24.281C5.26064 23.6399 5.12712 23.1858 4.61975 22.7584C3.23115 21.503 2.67038 19.8736 2.67038 18.0573C2.64367 15.0389 2.64367 11.9938 2.67038 8.97545C2.69708 6.99882 3.79193 5.93038 5.76801 5.87695C5.95494 5.87695 6.14186 5.87695 6.32879 5.87695C34.1007 5.87695 61.8726 5.87695 89.6712 5.87695C90.2854 5.87695 90.953 5.90366 91.5138 6.11735C92.6353 6.49131 93.2495 7.39949 93.2762 8.54807C93.3029 12.0205 93.3029 15.493 93.1961 18.9387C93.1427 20.5414 92.3416 21.8502 91.1933 22.9454C90.953 23.1858 90.7127 23.5598 90.7127 23.8803C90.686 32.9087 90.686 41.9371 90.686 50.9654C90.686 51.0723 90.7126 51.2058 90.7394 51.3661C92.6086 51.5531 94.7983 50.7785 95.9466 53.0756C96 55.1858 96 57.3227 96 59.4329ZM8.19805 24.5481C8.19805 33.5497 8.19805 42.4446 8.19805 51.3127C10.0673 51.3127 11.8565 51.3127 13.699 51.3127C13.699 46.7184 13.699 42.1775 13.699 37.6633C13.699 35.4729 14.7939 34.3511 16.9569 34.3511C19.6807 34.3511 22.4044 34.3511 25.1015 34.3511C27.3981 34.3511 28.4662 35.4462 28.4662 37.7701C28.4662 41.9638 28.4662 46.1574 28.4662 50.3244C28.4662 50.6449 28.4662 50.9921 28.4662 51.3127C38.4267 51.3127 48.2804 51.3127 58.2142 51.3127C58.2142 49.71 58.1875 48.1875 58.2142 46.6649C58.2676 44.7951 59.4159 43.7 61.2317 43.7C62.2465 43.7 63.2612 43.7 64.356 43.7C64.356 42.7384 64.3293 41.8836 64.356 41.0556C64.3828 40.5214 64.1691 40.3878 63.6617 40.3077C61.4453 39.9337 59.8965 38.0372 59.8698 35.8469C59.8431 33.6299 61.4453 31.6265 63.6885 31.3327C65.077 31.1724 66.4923 31.1724 67.8809 31.3327C70.0706 31.5998 71.5928 33.4429 71.7263 35.6332C71.8331 37.6365 70.4178 39.6132 68.3883 40.2008C68.0412 40.3077 67.6673 40.3611 67.2935 40.4412C67.2935 41.5364 67.2935 42.5781 67.2935 43.7C67.694 43.7 68.0145 43.7 68.3616 43.7C71.9666 43.7 75.5449 43.8068 79.1499 43.6733C82.0339 43.5664 83.2356 45.1157 83.022 47.6265C82.9152 48.8552 82.9953 50.1107 82.9953 51.3394C84.6509 51.3394 86.1997 51.3394 87.7218 51.3394C87.7218 42.3911 87.7218 33.4963 87.7218 24.5748C85.4253 24.735 83.556 23.9604 82.0339 22.3043C80.672 23.8002 79.0698 24.6015 77.1204 24.6015C75.1711 24.5748 73.5955 23.7467 72.2871 22.331C70.9252 23.8269 69.3496 24.6015 67.427 24.6015C65.4776 24.6015 63.9021 23.7734 62.5402 22.331C61.1783 23.7734 59.6028 24.6015 57.6534 24.6015C55.704 24.6015 54.1285 23.7467 52.7933 22.331C51.4314 23.8269 49.8292 24.6282 47.8798 24.6015C45.9305 24.6015 44.3549 23.7467 43.0465 22.331C41.6846 23.8002 40.109 24.6015 38.1864 24.6015C36.237 24.6015 34.6615 23.7734 33.2996 22.331C31.9377 23.7734 30.3622 24.6015 28.4128 24.6015C26.4634 24.6015 24.8879 23.7467 23.5527 22.331C22.1908 23.8002 20.5886 24.6015 18.6392 24.6015C16.6898 24.6015 15.1143 23.72 13.8058 22.331C12.3371 23.9871 10.4679 24.6816 8.19805 24.5481ZM73.8359 8.78847C73.8359 12.1541 73.7825 15.3861 73.8626 18.6449C73.8893 20.3277 75.4648 21.6633 77.2006 21.7167C78.9363 21.7434 80.5118 20.3544 80.6453 18.6449C80.6987 17.9504 80.6186 17.2559 80.6987 16.5881C80.7789 15.7868 81.2328 15.2526 82.0873 15.1992C82.8617 15.1457 83.4759 15.7067 83.5828 16.5881C83.6362 17.0956 83.6095 17.5765 83.6095 18.084C83.6362 20.2209 85.1049 21.7434 87.0542 21.7167C89.0036 21.69 90.4189 20.1941 90.4456 18.1107C90.4723 16.2943 90.4456 14.478 90.4456 12.6883C90.4456 11.4062 90.4456 10.1507 90.4456 8.84189C88.0957 8.84189 85.8793 8.84189 83.6629 8.84189C83.5026 10.9254 83.2356 11.4329 82.2476 11.4329C81.9271 11.4329 81.4197 11.3527 81.3129 11.1658C80.9391 10.4446 80.7255 9.66994 80.405 8.81518C78.3488 8.78847 76.1324 8.78847 73.8359 8.78847ZM25.5288 51.3394C25.5288 46.6382 25.5288 41.9905 25.5288 37.316C22.538 37.316 19.6006 37.316 16.6097 37.316C16.6097 42.0172 16.6097 46.6649 16.6097 51.3394C19.6006 51.3394 22.5113 51.3394 25.5288 51.3394ZM61.1516 51.3127C67.5338 51.3127 73.8359 51.3127 80.138 51.3127C80.138 49.6833 80.138 48.1073 80.138 46.5581C73.7825 46.5581 67.4804 46.5581 61.1516 46.5581C61.1516 48.1608 61.1516 49.71 61.1516 51.3127ZM34.8217 8.78847C34.8217 11.9671 34.8217 15.0122 34.8217 18.084C34.8217 20.1941 36.3171 21.7434 38.2665 21.7167C40.2159 21.69 41.6312 20.1941 41.6312 18.084C41.6579 15.1992 41.6312 12.3411 41.6312 9.45625C41.6312 9.24256 41.6044 9.02887 41.5777 8.78847C39.3613 8.78847 37.1449 8.78847 34.8217 8.78847ZM44.5686 8.78847C44.5686 11.9671 44.5686 15.0122 44.5686 18.084C44.5686 20.1674 45.9839 21.6633 47.9332 21.69C49.8826 21.7167 51.378 20.1941 51.378 18.0573C51.4047 15.1724 51.378 12.3143 51.378 9.42954C51.378 9.21585 51.3513 9.00216 51.3246 8.76176C49.0815 8.78847 46.8918 8.78847 44.5686 8.78847ZM5.58108 8.81518C5.58108 11.9938 5.55438 15.0923 5.58108 18.1641C5.58108 20.2209 7.1032 21.7434 9.02587 21.7167C10.9218 21.69 12.3905 20.2209 12.4172 18.2175C12.4439 15.68 12.4172 13.1691 12.4172 10.6315C12.4172 10.0439 12.4172 9.45625 12.4172 8.81518C10.1207 8.81518 7.93101 8.81518 5.58108 8.81518ZM15.328 8.78847C15.328 11.9671 15.328 15.0122 15.328 18.084C15.328 20.1674 16.7433 21.6633 18.6926 21.7167C20.642 21.7701 22.1374 20.2209 22.1641 18.084C22.1908 15.1992 22.1641 12.3411 22.1641 9.45625C22.1641 9.24256 22.1374 9.02887 22.1107 8.78847C19.8676 8.78847 17.6512 8.78847 15.328 8.78847ZM25.0748 8.78847C25.0748 11.9671 25.0748 15.0122 25.0748 18.084C25.0748 20.1674 26.4901 21.6633 28.4395 21.7167C30.3889 21.7434 31.8843 20.2209 31.8843 18.084C31.911 15.1992 31.8843 12.3411 31.8843 9.45625C31.8843 9.24256 31.8576 9.02887 31.8309 8.78847C29.5878 8.78847 27.3981 8.78847 25.0748 8.78847ZM54.3421 8.81518C54.3421 12.0472 54.3154 15.1992 54.3421 18.3511C54.3688 20.2743 55.9177 21.7434 57.7602 21.7167C59.6295 21.69 61.0982 20.2209 61.1516 18.2977C61.1783 16.6148 61.1516 14.932 61.1516 13.2492C61.1516 11.7801 61.1516 10.3377 61.1516 8.81518C58.8551 8.81518 56.6654 8.81518 54.3421 8.81518ZM64.0623 8.78847C64.0623 11.9671 64.0623 15.0122 64.0623 18.084C64.0623 20.1674 65.4776 21.6633 67.427 21.7167C69.3764 21.7701 70.8718 20.2209 70.8985 18.084C70.9252 15.1992 70.8985 12.3411 70.8985 9.45625C70.8985 9.24256 70.8718 9.02887 70.8451 8.78847C68.6019 8.78847 66.3855 8.78847 64.0623 8.78847ZM65.8782 34.084C65.3708 34.084 64.8901 34.0573 64.3828 34.084C63.4214 34.1374 62.7805 34.8319 62.7805 35.7935C62.7805 36.7284 63.4214 37.4496 64.3828 37.503C65.3174 37.5297 66.252 37.5297 67.1866 37.503C68.2014 37.4763 68.8423 36.7284 68.8423 35.7401C68.8156 34.7785 68.2014 34.1374 67.1866 34.084C66.7594 34.0573 66.3321 34.084 65.8782 34.084Z" fill="#5BC6ED"/>
<path d="M57.173 74.2304C57.173 79.2521 53.0072 83.4191 47.9869 83.4191C42.9399 83.4191 38.8008 79.2254 38.8008 74.1503C38.8275 69.1019 42.9399 65.0418 48.0403 65.0685C53.114 65.0685 57.173 69.1553 57.173 74.2304ZM47.8801 80.5343C51.3248 80.6144 54.2088 77.8631 54.3424 74.364C54.4759 70.9717 51.5919 67.98 48.1471 67.8999C44.6489 67.8197 41.7382 70.6511 41.6314 74.1503C41.578 77.5693 44.3819 80.4274 47.8801 80.5343Z" fill="#5BC6ED"/>
<path d="M30.7363 79.1721C30.7363 78.0769 30.763 76.9818 30.7096 75.8866C30.6829 75.5928 30.4693 75.1921 30.2289 75.0586C27.1847 73.2956 26.3035 69.2088 28.4131 66.3774C30.4159 63.6796 34.101 63.7597 35.997 66.5644C37.9463 69.4759 37.0384 73.2956 34.0209 75.0586C33.7805 75.1921 33.5936 75.6195 33.5936 75.9133C33.5669 77.9968 33.5669 80.107 33.5669 82.1904C33.5669 83.3924 33.0862 83.9801 32.1516 83.9801C31.2437 83.9801 30.763 83.3657 30.763 82.1637C30.7363 81.1754 30.7363 80.1871 30.7363 79.1721ZM30.1755 69.9567C30.1755 71.4258 31.0301 72.5744 32.1249 72.6011C33.2465 72.6278 34.1544 71.4525 34.1544 69.93C34.1544 68.4876 33.2732 67.3123 32.205 67.2856C31.0568 67.2589 30.1755 68.4609 30.1755 69.9567Z" fill="#5BC6ED"/>
<path d="M62.8604 78.8521C62.8604 78.3179 62.8337 77.7837 62.8604 77.2494C62.9672 75.9139 62.9405 74.8187 61.4718 74.0174C60.3236 73.403 59.8963 72.0408 59.9497 70.6785C60.0031 69.156 60.1099 67.6334 60.2435 66.1109C60.3503 64.9356 60.9378 64.3747 61.8457 64.4548C62.7803 64.5349 63.2343 65.2828 63.1275 66.4848C62.9939 67.8471 62.8871 69.2094 62.807 70.5984C62.7536 71.6401 63.4212 72.3346 64.3558 72.3079C65.2638 72.2812 65.878 71.6401 65.8245 70.6251C65.7711 69.2094 65.6376 67.8204 65.5308 66.4314C65.424 65.3095 65.878 64.5883 66.7859 64.4815C67.6938 64.3746 68.308 64.989 68.4148 66.1109C68.5483 67.6067 68.6551 69.1025 68.7085 70.5984C68.762 72.4147 67.9876 73.8037 66.3853 74.6585C65.9314 74.8989 65.7978 75.166 65.7978 75.6735C65.8245 77.8905 65.7978 80.1075 65.7978 82.3246C65.7978 83.1259 65.5308 83.767 64.7297 84.0074C63.7684 84.3012 62.9405 83.6067 62.9138 82.4581C62.8337 81.2294 62.8604 80.0274 62.8604 78.8521Z" fill="#5BC6ED"/>
</svg>
