<svg width="42" height="44" viewBox="0 0 42 44" fill="none" xmlns="http://www.w3.org/2000/svg">
<g clip-path="url(#clip0_2757_21241)">
<path d="M24.6288 7.02175C26.9223 9.24468 29.0394 11.3265 31.1564 13.4436C34.2262 16.5133 37.296 19.5831 40.3305 22.6529C41.2831 23.6055 41.2831 23.9937 40.3657 24.9111C34.2615 31.0153 28.1572 37.1196 22.053 43.2591C21.0297 44.2824 20.7122 44.2824 19.6889 43.2238C13.8669 37.296 8.04497 31.4035 2.223 25.5109C-0.176363 23.0763 -0.141078 20.1829 2.29357 17.7836C7.76269 12.3144 13.2318 6.88061 18.6657 1.44677C20.5357 -0.388037 23.5702 -0.458606 25.405 1.30563C26.887 2.71702 26.9576 4.72824 25.5815 6.24548C25.3697 6.45719 25.0522 6.6689 24.6288 7.02175ZM38.5309 23.8878C33.4499 18.7363 28.4042 13.6553 23.3232 8.53899C23.0762 8.7507 22.8645 8.9624 22.6175 9.2094C18.1364 13.6906 13.6552 18.207 9.17408 22.7234C7.48041 24.4171 5.6809 23.8525 4.5165 22.0177C4.34008 21.7355 4.44593 20.9945 4.65764 20.7122C5.04577 20.2535 5.61033 20.3594 6.03374 20.8181C6.21017 20.9945 6.38659 21.2062 6.56301 21.3826C7.057 21.8413 7.55098 21.7002 7.72741 21.1003C7.83326 20.6769 7.79798 20.0771 7.55098 19.7242C6.70415 18.5951 4.9752 18.4187 3.84609 19.195C2.18771 20.3594 2.04657 22.3353 3.52853 23.8878C9.10351 29.6039 14.7491 35.2848 20.324 41.0009C20.818 41.5302 21.1003 41.3537 21.5237 40.9303C26.9928 35.4259 32.4973 29.9215 37.9664 24.4524C38.1781 24.276 38.3898 24.029 38.5309 23.8878ZM9.70335 19.3008C9.91506 19.0891 10.1268 18.9127 10.3032 18.7363C14.7843 14.2551 19.3008 9.77395 23.7819 5.2928C24.3112 4.76353 24.7699 4.19897 24.4876 3.45799C24.1701 2.64645 23.4644 2.18774 22.6175 2.08189C21.4884 1.94075 20.6063 2.36417 19.7948 3.17572C15.4548 7.48045 11.1147 11.7852 6.77472 16.1252C6.5983 16.3016 6.45716 16.478 6.24545 16.725C7.79798 17.1837 8.96237 17.8894 9.70335 19.3008Z" fill="white"/>
<path d="M11.0781 25.6524C13.6186 23.1472 16.0533 20.6773 18.5585 18.2426C18.6996 18.1015 19.1936 18.1368 19.3347 18.2426C19.9699 18.7719 20.5344 19.3718 21.0637 19.9716C21.593 20.5714 21.9811 20.6067 22.5456 20.0069C23.4983 18.9483 24.5569 17.9604 25.4743 17.043C27.7678 19.3365 30.0613 21.5947 32.3548 23.9235C32.2842 24.0293 32.0725 24.241 31.8961 24.4528C28.5088 27.8754 25.0509 31.298 21.6282 34.7559C21.0637 35.3204 20.7461 35.391 20.1463 34.7912C17.3235 31.9331 14.4655 29.1103 11.6427 26.2523C11.4663 26.1111 11.3251 25.9347 11.0781 25.6524ZM19.4406 29.2162C19.1936 29.5337 19.0877 29.7102 18.9113 29.816C18.2409 30.31 18.3468 30.7687 18.9466 31.2627C19.4759 31.6861 19.9346 32.1801 20.3933 32.6741C20.7461 33.0622 21.0284 33.0622 21.4165 32.6741C24.204 29.8866 26.9915 27.0638 29.779 24.2763C30.2024 23.8529 30.1671 23.5706 29.7437 23.1825C28.7558 22.2651 27.8384 21.2771 26.8857 20.3244C25.5448 18.9836 25.8271 19.0189 24.4863 20.3244C23.0396 21.7358 23.0396 21.7358 24.3805 23.1825C24.451 23.2531 24.5922 23.3589 24.5922 23.4295C24.6274 23.6059 24.698 23.8529 24.5922 23.9588C23.9218 24.6645 23.2161 25.3702 22.4751 26.1111C22.0517 25.6524 21.7341 25.2996 21.3813 24.9115C21.6282 24.6292 21.7694 24.4175 21.9811 24.2763C22.5104 23.8529 22.4398 23.5001 21.9458 23.0767C21.0637 22.2651 20.2169 21.383 19.4053 20.5362C19.0525 20.1833 18.8055 20.1833 18.4526 20.5009C16.9354 22.0534 15.3829 23.5706 13.8656 25.0879C13.4775 25.476 13.5128 25.7583 13.9009 26.1111C14.5713 26.7463 15.1711 27.3814 15.8416 28.0165C16.9707 29.1456 16.9707 29.1456 18.1703 28.1576C18.2056 28.1224 18.2762 28.1224 18.2409 28.1576C18.6643 28.6163 19.0172 28.8633 19.4406 29.2162Z" fill="#ABB910"/>
</g>
<defs>
<clipPath id="clip0_2757_21241">
<rect width="40.6127" height="44" fill="white" transform="translate(0.457031)"/>
</clipPath>
</defs>
</svg>
