<svg width="42" height="40" viewBox="0 0 42 40" fill="none" xmlns="http://www.w3.org/2000/svg">
<g clip-path="url(#clip0_2757_21244)">
<path d="M33.9882 18.5332C34.5674 17.7368 35.1104 16.9766 35.7258 16.2888C36.0516 15.8906 35.9792 15.6372 35.6534 15.2029C34.857 14.2617 33.952 13.7911 32.685 13.9359C31.7801 14.0445 30.8027 14.0807 29.8977 13.9359C28.2688 13.6825 27.3276 14.5151 26.4588 15.782C27.1104 16.687 27.7982 17.592 28.5221 18.5694C28.0516 18.9314 27.6172 19.2572 27.0742 19.6915C26.0968 18.3884 25.1194 17.1214 24.2145 15.8182C24.1421 15.7096 24.2506 15.3115 24.3954 15.1667C25.3728 14.1531 26.3864 13.1757 27.4 12.1983C27.4724 12.1259 27.6534 12.0535 27.6534 11.9811C27.5448 10.859 28.124 9.66439 27.2552 8.61462C25.6624 6.69607 25.5538 4.34312 26.9656 2.27978C28.1964 0.469821 30.6579 -0.398957 32.7574 0.252626C34.9294 0.90421 36.5945 3.07616 36.4859 5.3567C36.4497 6.29788 36.124 7.38385 35.581 8.10783C34.8932 8.97661 34.7484 9.80919 34.7846 10.8228C34.7846 11.5829 34.8932 12.1259 35.5448 12.6689C36.4497 13.3929 37.2099 14.3341 38.0425 15.1305C38.4407 15.4924 38.4407 15.782 38.1149 16.1802C37.3909 17.0852 36.6669 18.0264 36.0154 19.0038C35.581 19.6553 35.219 19.6915 34.676 19.1848C34.495 18.9314 34.2778 18.7866 33.9882 18.5332ZM27.9068 5.1757C27.9068 7.13045 29.3547 8.65082 31.2733 8.65082C33.0832 8.65082 34.6398 7.09426 34.676 5.2481C34.7122 3.43815 33.1556 1.84539 31.3095 1.84539C29.3909 1.84539 27.9068 3.29335 27.9068 5.1757ZM32.9022 10.3884C31.7801 10.3884 30.6941 10.3884 29.6443 10.3884C29.6443 10.9314 29.6443 11.4743 29.6443 12.0897C30.7665 12.0897 31.8163 12.0897 32.9022 12.0897C32.9022 11.4381 32.9022 10.859 32.9022 10.3884Z" fill="white"/>
<path d="M25.0832 1.73828C25.1556 2.35367 25.228 2.86045 25.3366 3.54824C21.2823 4.05502 17.3004 4.56181 13.4633 5.0686C13.6805 6.44416 13.8615 7.67493 14.1149 9.1229C17.6262 8.43511 21.3185 7.67493 25.0832 6.95095C25.228 7.53014 25.3366 8.07312 25.4814 8.72471C23.8887 9.0505 22.3683 9.37629 20.8841 9.66588C18.3864 10.1727 15.8887 10.6433 13.3909 11.1862C12.9565 11.2948 12.5221 11.5482 12.1602 11.8378C10.1692 13.5392 7.30947 13.5754 5.39092 11.9102C3.29137 10.0641 2.85699 7.20434 4.37735 4.9238C5.86151 2.67946 8.64884 1.95548 11.0742 3.15005C11.4 3.29484 11.7982 3.40344 12.1602 3.33104C16.3954 2.82425 20.6669 2.28127 25.0832 1.73828ZM8.64884 11.2224C10.6036 11.2586 12.0878 9.81068 12.124 7.89213C12.1602 6.00977 10.676 4.48941 8.82984 4.45321C6.91128 4.41701 5.39092 5.90118 5.35472 7.81973C5.31852 9.66588 6.80269 11.1862 8.64884 11.2224Z" fill="white"/>
<path d="M20.7776 30.3708C20.307 30.3708 19.764 30.3708 19.1124 30.3708C19.1124 29.321 19.1124 28.2712 19.1124 27.1128C16.2527 29.14 13.6101 29.321 10.5332 27.1128C10.5332 28.1988 10.5332 29.2486 10.5332 30.3346C9.91783 30.3346 9.37484 30.3346 8.83185 30.3346C8.79566 30.2622 8.72326 30.1898 8.72326 30.1174C8.75946 27.2214 8.75946 24.3617 8.79566 21.4658C8.79566 21.14 8.90425 20.778 9.08525 20.5246C9.73683 19.5834 9.30244 18.8957 8.75946 18.1355C7.89068 16.9409 7.1305 15.7101 6.26172 14.407C6.76851 14.045 7.20289 13.7192 7.78208 13.3572C8.79566 14.8776 9.80923 16.3617 10.7504 17.8097C11.764 17.3391 12.7052 16.9047 13.7549 16.4341C13.0671 15.5653 12.307 14.6242 11.5106 13.6106C11.945 13.2124 12.3794 12.8504 12.8862 12.416C13.8273 13.5744 14.7323 14.769 15.6735 15.8549C16.0355 16.2893 16.5423 16.6513 17.0852 16.8685C19.0762 17.7373 20.5604 19.1852 20.7414 21.321C20.9586 24.3255 20.7776 27.33 20.7776 30.3708ZM10.5694 22.4794C10.6056 25.0133 12.4518 26.8595 14.8771 26.8233C17.3386 26.7509 19.1124 24.8685 19.0762 22.3708C19.04 20.0902 17.1214 18.2803 14.7685 18.3165C12.4156 18.3165 10.5332 20.1988 10.5694 22.4794Z" fill="white"/>
<mask id="path-4-inside-1_2757_21244" fill="white">
<rect x="25.7695" y="23" width="11" height="10" rx="1"/>
</mask>
<rect x="25.7695" y="23" width="11" height="10" rx="1" stroke="#ABB910" stroke-width="4" mask="url(#path-4-inside-1_2757_21244)"/>
<mask id="path-5-inside-2_2757_21244" fill="white">
<path d="M5 34.5C4.44772 34.5 4 34.9477 4 35.5C4 36.0523 4.44772 36.5 5 36.5C5.55228 36.5 6 36.0523 6 35.5C6 34.9477 5.55228 34.5 5 34.5Z"/>
<path d="M14.5703 35.5C14.5703 34.9477 15.018 34.5 15.5703 34.5C16.1226 34.5 16.5703 34.9477 16.5703 35.5C16.5703 36.0523 16.1226 36.5 15.5703 36.5C15.018 36.5 14.5703 36.0523 14.5703 35.5Z"/>
<path d="M31 34.5C30.4477 34.5 30 34.9477 30 35.5C30 36.0523 30.4477 36.5 31 36.5C31.5523 36.5 32 36.0523 32 35.5C32 34.9477 31.5523 34.5 31 34.5Z"/>
<path d="M9.57031 35.5C9.57031 34.9477 10.018 34.5 10.5703 34.5C11.1226 34.5 11.5703 34.9477 11.5703 35.5C11.5703 36.0523 11.1226 36.5 10.5703 36.5C10.018 36.5 9.57031 36.0523 9.57031 35.5Z"/>
<path d="M26 34.5C25.4477 34.5 25 34.9477 25 35.5C25 36.0523 25.4477 36.5 26 36.5C26.5523 36.5 27 36.0523 27 35.5C27 34.9477 26.5523 34.5 26 34.5Z"/>
<path d="M19.5703 35.5C19.5703 34.9477 20.018 34.5 20.5703 34.5C21.1226 34.5 21.5703 34.9477 21.5703 35.5C21.5703 36.0523 21.1226 36.5 20.5703 36.5C20.018 36.5 19.5703 36.0523 19.5703 35.5Z"/>
<path d="M36 34.5C35.4477 34.5 35 34.9477 35 35.5C35 36.0523 35.4477 36.5 36 36.5C36.5523 36.5 37 36.0523 37 35.5C37 34.9477 36.5523 34.5 36 34.5Z"/>
<path fill-rule="evenodd" clip-rule="evenodd" d="M0.0703125 35.5C0.0703125 33.0147 2.08503 31 4.57031 31H37.0703C39.5556 31 41.5703 33.0147 41.5703 35.5C41.5703 37.9853 39.5556 40 37.0703 40H4.57031C2.08503 40 0.0703125 37.9853 0.0703125 35.5ZM4.57031 33H37.0703C38.451 33 39.5703 34.1193 39.5703 35.5C39.5703 36.8807 38.451 38 37.0703 38H4.57031C3.1896 38 2.07031 36.8807 2.07031 35.5C2.07031 34.1193 3.1896 33 4.57031 33Z"/>
</mask>
<path d="M5 34.5C4.44772 34.5 4 34.9477 4 35.5C4 36.0523 4.44772 36.5 5 36.5C5.55228 36.5 6 36.0523 6 35.5C6 34.9477 5.55228 34.5 5 34.5Z" fill="white"/>
<path d="M14.5703 35.5C14.5703 34.9477 15.018 34.5 15.5703 34.5C16.1226 34.5 16.5703 34.9477 16.5703 35.5C16.5703 36.0523 16.1226 36.5 15.5703 36.5C15.018 36.5 14.5703 36.0523 14.5703 35.5Z" fill="white"/>
<path d="M31 34.5C30.4477 34.5 30 34.9477 30 35.5C30 36.0523 30.4477 36.5 31 36.5C31.5523 36.5 32 36.0523 32 35.5C32 34.9477 31.5523 34.5 31 34.5Z" fill="white"/>
<path d="M9.57031 35.5C9.57031 34.9477 10.018 34.5 10.5703 34.5C11.1226 34.5 11.5703 34.9477 11.5703 35.5C11.5703 36.0523 11.1226 36.5 10.5703 36.5C10.018 36.5 9.57031 36.0523 9.57031 35.5Z" fill="white"/>
<path d="M26 34.5C25.4477 34.5 25 34.9477 25 35.5C25 36.0523 25.4477 36.5 26 36.5C26.5523 36.5 27 36.0523 27 35.5C27 34.9477 26.5523 34.5 26 34.5Z" fill="white"/>
<path d="M19.5703 35.5C19.5703 34.9477 20.018 34.5 20.5703 34.5C21.1226 34.5 21.5703 34.9477 21.5703 35.5C21.5703 36.0523 21.1226 36.5 20.5703 36.5C20.018 36.5 19.5703 36.0523 19.5703 35.5Z" fill="white"/>
<path d="M36 34.5C35.4477 34.5 35 34.9477 35 35.5C35 36.0523 35.4477 36.5 36 36.5C36.5523 36.5 37 36.0523 37 35.5C37 34.9477 36.5523 34.5 36 34.5Z" fill="white"/>
<path fill-rule="evenodd" clip-rule="evenodd" d="M0.0703125 35.5C0.0703125 33.0147 2.08503 31 4.57031 31H37.0703C39.5556 31 41.5703 33.0147 41.5703 35.5C41.5703 37.9853 39.5556 40 37.0703 40H4.57031C2.08503 40 0.0703125 37.9853 0.0703125 35.5ZM4.57031 33H37.0703C38.451 33 39.5703 34.1193 39.5703 35.5C39.5703 36.8807 38.451 38 37.0703 38H4.57031C3.1896 38 2.07031 36.8807 2.07031 35.5C2.07031 34.1193 3.1896 33 4.57031 33Z" fill="white"/>
<path d="M37.0703 31H4.57031V35H37.0703V31ZM41.5703 35.5C41.5703 33.0147 39.5556 31 37.0703 31V35C37.3465 35 37.5703 35.2239 37.5703 35.5H41.5703ZM37.0703 40C39.5556 40 41.5703 37.9853 41.5703 35.5H37.5703C37.5703 35.7761 37.3465 36 37.0703 36V40ZM4.57031 40H37.0703V36H4.57031V40ZM0.0703125 35.5C0.0703125 37.9853 2.08503 40 4.57031 40V36C4.29417 36 4.07031 35.7761 4.07031 35.5H0.0703125ZM4.57031 31C2.08503 31 0.0703125 33.0147 0.0703125 35.5H4.07031C4.07031 35.2239 4.29417 35 4.57031 35V31ZM4.57031 29C0.980462 29 -1.92969 31.9101 -1.92969 35.5H2.07031C2.07031 34.1193 3.1896 33 4.57031 33V29ZM37.0703 29H4.57031V33H37.0703V29ZM43.5703 35.5C43.5703 31.9101 40.6602 29 37.0703 29V33C38.451 33 39.5703 34.1193 39.5703 35.5H43.5703ZM37.0703 42C40.6602 42 43.5703 39.0899 43.5703 35.5H39.5703C39.5703 36.8807 38.451 38 37.0703 38V42ZM4.57031 42H37.0703V38H4.57031V42ZM-1.92969 35.5C-1.92969 39.0899 0.980461 42 4.57031 42V38C3.1896 38 2.07031 36.8807 2.07031 35.5H-1.92969ZM6 35.5C6 36.0523 5.55228 36.5 5 36.5V32.5C3.34315 32.5 2 33.8431 2 35.5H6ZM5 34.5C5.55228 34.5 6 34.9477 6 35.5H2C2 37.1569 3.34315 38.5 5 38.5V34.5ZM4 35.5C4 34.9477 4.44772 34.5 5 34.5V38.5C6.65685 38.5 8 37.1569 8 35.5H4ZM5 36.5C4.44772 36.5 4 36.0523 4 35.5H8C8 33.8431 6.65685 32.5 5 32.5V36.5ZM15.5703 32.5C13.9135 32.5 12.5703 33.8431 12.5703 35.5H16.5703C16.5703 36.0523 16.1226 36.5 15.5703 36.5V32.5ZM18.5703 35.5C18.5703 33.8431 17.2272 32.5 15.5703 32.5V36.5C15.018 36.5 14.5703 36.0523 14.5703 35.5H18.5703ZM15.5703 38.5C17.2272 38.5 18.5703 37.1569 18.5703 35.5H14.5703C14.5703 34.9477 15.018 34.5 15.5703 34.5V38.5ZM12.5703 35.5C12.5703 37.1569 13.9135 38.5 15.5703 38.5V34.5C16.1226 34.5 16.5703 34.9477 16.5703 35.5H12.5703ZM32 35.5C32 36.0523 31.5523 36.5 31 36.5V32.5C29.3431 32.5 28 33.8431 28 35.5H32ZM31 34.5C31.5523 34.5 32 34.9477 32 35.5H28C28 37.1569 29.3431 38.5 31 38.5V34.5ZM30 35.5C30 34.9477 30.4477 34.5 31 34.5V38.5C32.6569 38.5 34 37.1569 34 35.5H30ZM31 36.5C30.4477 36.5 30 36.0523 30 35.5H34C34 33.8431 32.6569 32.5 31 32.5V36.5ZM10.5703 32.5C8.91346 32.5 7.57031 33.8431 7.57031 35.5H11.5703C11.5703 36.0523 11.1226 36.5 10.5703 36.5V32.5ZM13.5703 35.5C13.5703 33.8431 12.2272 32.5 10.5703 32.5V36.5C10.018 36.5 9.57031 36.0523 9.57031 35.5H13.5703ZM10.5703 38.5C12.2272 38.5 13.5703 37.1569 13.5703 35.5H9.57031C9.57031 34.9477 10.018 34.5 10.5703 34.5V38.5ZM7.57031 35.5C7.57031 37.1569 8.91346 38.5 10.5703 38.5V34.5C11.1226 34.5 11.5703 34.9477 11.5703 35.5H7.57031ZM27 35.5C27 36.0523 26.5523 36.5 26 36.5V32.5C24.3431 32.5 23 33.8431 23 35.5H27ZM26 34.5C26.5523 34.5 27 34.9477 27 35.5H23C23 37.1569 24.3431 38.5 26 38.5V34.5ZM25 35.5C25 34.9477 25.4477 34.5 26 34.5V38.5C27.6569 38.5 29 37.1569 29 35.5H25ZM26 36.5C25.4477 36.5 25 36.0523 25 35.5H29C29 33.8431 27.6569 32.5 26 32.5V36.5ZM20.5703 32.5C18.9135 32.5 17.5703 33.8431 17.5703 35.5H21.5703C21.5703 36.0523 21.1226 36.5 20.5703 36.5V32.5ZM23.5703 35.5C23.5703 33.8431 22.2272 32.5 20.5703 32.5V36.5C20.018 36.5 19.5703 36.0523 19.5703 35.5H23.5703ZM20.5703 38.5C22.2272 38.5 23.5703 37.1569 23.5703 35.5H19.5703C19.5703 34.9477 20.018 34.5 20.5703 34.5V38.5ZM17.5703 35.5C17.5703 37.1569 18.9135 38.5 20.5703 38.5V34.5C21.1226 34.5 21.5703 34.9477 21.5703 35.5H17.5703ZM37 35.5C37 36.0523 36.5523 36.5 36 36.5V32.5C34.3431 32.5 33 33.8431 33 35.5H37ZM36 34.5C36.5523 34.5 37 34.9477 37 35.5H33C33 37.1569 34.3431 38.5 36 38.5V34.5ZM35 35.5C35 34.9477 35.4477 34.5 36 34.5V38.5C37.6569 38.5 39 37.1569 39 35.5H35ZM36 36.5C35.4477 36.5 35 36.0523 35 35.5H39C39 33.8431 37.6569 32.5 36 32.5V36.5Z" fill="white" mask="url(#path-5-inside-2_2757_21244)"/>
</g>
<defs>
<clipPath id="clip0_2757_21244">
<rect width="41.5928" height="40" fill="white" transform="translate(0.0703125)"/>
</clipPath>
</defs>
</svg>
