<svg width="42" height="42" viewBox="0 0 42 42" fill="none" xmlns="http://www.w3.org/2000/svg">
<g clip-path="url(#clip0_2756_21234)">
<path d="M30.0843 26.399C30.4093 26.6518 30.7343 26.8323 31.0232 27.1212C34.1651 30.1909 37.2709 33.2605 40.3766 36.3302C41.3878 37.3413 41.7128 38.497 41.2434 39.8693C40.7739 41.1333 39.871 41.8916 38.4987 42C37.3792 42.1083 36.4764 41.6389 35.6819 40.8444C32.5039 37.7386 29.362 34.6328 26.184 31.5271C25.9312 31.2743 25.6784 31.0215 25.4256 30.8048C15.8917 36.2218 6.53828 31.816 2.52968 25.5322C-1.73171 18.779 -0.503854 9.53395 5.41876 4.2975C11.8109 -1.33621 20.9837 -1.44455 27.4119 4.00859C33.3345 9.06448 35.5013 18.454 30.0843 26.399ZM16.5778 31.3465C24.6311 31.3465 31.3121 24.7377 31.3483 16.7567C31.3844 8.63111 24.7034 1.95012 16.6139 1.95012C8.56063 1.914 1.87964 8.52277 1.87964 16.5039C1.84352 24.6655 8.45229 31.3104 16.5778 31.3465ZM27.0869 29.6492C27.9175 30.4798 28.7481 31.3465 29.6148 32.1771C32.1427 34.6689 34.6346 37.1608 37.1625 39.6165C37.8126 40.2665 38.6432 40.3027 39.1488 39.7971C39.6544 39.2915 39.6544 38.3886 39.1488 37.7386C39.0404 37.5941 38.896 37.4858 38.7876 37.3413C36.4403 35.0662 34.0929 32.791 31.7816 30.4798C30.8427 29.5408 30.0121 28.5658 29.1092 27.5546C28.2786 28.3852 27.7008 29.0352 27.0869 29.6492Z" fill="white"/>
<path d="M10.0404 24.522C10.0404 24.9554 10.0043 25.3526 10.0404 25.786C10.0765 26.3638 9.9682 26.761 9.24593 26.7249C8.55977 26.7249 8.3792 26.436 8.41532 25.8221C8.45143 25.1359 8.45143 24.4498 8.41532 23.7636C8.34309 21.9941 9.02925 20.5856 10.4738 19.6106C14.374 16.9743 19.3216 17.0826 23.0052 19.8272C24.233 20.7301 24.847 21.9941 24.8108 23.5469C24.7747 24.3775 24.7747 25.2082 24.8108 26.0749C24.8108 26.6888 24.4497 26.7249 23.9802 26.7249C23.5108 26.7249 23.1496 26.6888 23.1496 26.0749C23.1857 25.2082 23.1135 24.3414 23.1496 23.4747C23.2219 22.3552 22.7163 21.5968 21.8857 20.9468C19.141 18.9244 14.663 18.8161 11.7739 20.6217C10.2571 21.5607 9.78763 22.8608 10.0404 24.522Z" fill="#ABB910"/>
<path d="M21.0197 11.1226C21.1641 12.9283 20.8391 14.5534 19.2501 15.6729C17.7334 16.7202 16.0721 16.7924 14.4831 15.9979C12.9303 15.2395 12.1719 13.8672 12.1719 12.1338C12.1719 11.4115 12.1719 10.6892 12.1719 9.96695C12.1719 7.94459 13.5803 5.74167 16.5777 5.70555C19.3946 5.66944 21.0197 7.6918 21.0558 9.89472C21.0558 10.292 21.0197 10.7253 21.0197 11.1226ZM19.5029 11.0865C19.5029 11.0865 19.539 11.0865 19.5029 11.0865C19.5029 10.7253 19.539 10.3642 19.5029 10.0031C19.3585 8.37795 18.2389 7.33066 16.7222 7.29455C15.1332 7.25844 13.9775 8.16127 13.7609 9.78638C13.6525 10.6531 13.6525 11.5921 13.7609 12.4588C13.9775 14.0478 15.1332 14.9867 16.6499 14.9145C18.2028 14.8423 19.2862 13.9033 19.5029 12.3143C19.5751 11.9171 19.5029 11.4837 19.5029 11.0865Z" fill="#ABB910"/>
</g>
<defs>
<clipPath id="clip0_2756_21234">
<rect width="41.4583" height="42" fill="white"/>
</clipPath>
</defs>
</svg>
