<svg width="96" height="96" viewBox="0 0 96 96" fill="none" xmlns="http://www.w3.org/2000/svg">
<g clip-path="url(#clip0_2734_20249)">
<path d="M63.9561 92.7685C65.0777 92.7685 66.039 92.7685 67.1606 92.7685C67.1606 92.3945 67.1606 92.0473 67.1606 91.7C67.1606 86.2776 67.1606 80.8286 67.1606 75.4062C67.1606 74.3645 67.668 73.7234 68.5225 73.6166C69.3236 73.5097 70.1247 73.9905 70.3116 74.7384C70.3917 75.059 70.365 75.4062 70.365 75.7267C70.365 81.0155 70.365 86.3311 70.365 91.6199C70.365 91.9671 70.365 92.3411 70.365 92.7418C77.8421 92.7418 85.2123 92.7418 92.6894 92.7418C92.6894 85.3428 92.6894 77.9438 92.6894 70.4112C92.2888 70.4112 91.8616 70.4112 91.461 70.4112C61.7664 70.4112 32.0986 70.4112 2.40398 70.4112C2.08353 70.4112 1.73638 70.4379 1.41594 70.3845C0.614827 70.3044 0.0273438 69.6366 0.0273438 68.8353C0.0273438 67.9805 0.588123 67.3127 1.46935 67.2326C1.73638 67.2059 2.00342 67.2326 2.27046 67.2326C32.7661 67.2326 63.2351 67.2326 93.7308 67.2326C95.6001 67.2326 96.0006 67.66 96.0006 69.5297C96.0006 77.6232 96.0006 85.7167 96.0006 93.8102C96.0006 95.5464 95.5467 96.0272 93.8376 96.0272C63.2885 96.0272 32.7394 96.0272 2.19035 96.0272C1.92331 96.0272 1.65627 96.0539 1.38924 96.0005C0.588123 95.8937 0.0273438 95.2259 0.0540475 94.3979C0.0540475 93.5698 0.614827 92.902 1.41594 92.8219C1.97672 92.7685 2.5375 92.8219 3.23179 92.8219C3.23179 92.4212 3.23179 92.0473 3.23179 91.7C3.23179 86.3578 3.23179 81.0423 3.23179 75.7C3.23179 74.0973 3.71246 73.6166 5.28798 73.6166C13.5127 73.6166 21.7375 73.6166 29.9623 73.6166C31.4844 73.6166 31.9917 74.1241 31.9917 75.6466C31.9917 80.9888 31.9917 86.3044 31.9917 91.6466C31.9917 91.9938 31.9917 92.3678 31.9917 92.7685C33.6207 92.7685 35.1161 92.7685 36.7984 92.7685C36.7984 92.4212 36.7984 92.074 36.7984 91.7267C36.7984 88.4947 36.7984 85.2626 36.7984 82.0306C36.7984 80.5615 37.3058 80.0272 38.7478 80.0272C46.5186 80.0272 54.2627 80.0272 62.0335 80.0272C63.4221 80.0272 63.9561 80.5615 63.9561 81.9504C63.9561 85.1825 63.9561 88.4145 63.9561 91.6466C63.9561 91.9671 63.9561 92.3411 63.9561 92.7685ZM24.0073 81.6032C22.2983 81.6032 20.8029 83.0723 20.8029 84.7818C20.8029 86.4646 22.2716 87.9872 23.9806 87.9872C25.6897 87.9872 27.1584 86.5181 27.1851 84.8085C27.2118 83.1257 25.6897 81.6032 24.0073 81.6032ZM6.43625 79.9204C9.6674 79.9204 12.7917 79.9204 15.9161 79.9204C15.9161 78.8519 15.9161 77.8369 15.9161 76.8486C12.7116 76.8486 9.61399 76.8486 6.43625 76.8486C6.43625 77.8903 6.43625 78.8519 6.43625 79.9204ZM6.43625 86.3311C9.6674 86.3311 12.7917 86.3311 15.9161 86.3311C15.9161 85.2626 15.9161 84.2476 15.9161 83.2593C12.7116 83.2593 9.61399 83.2593 6.43625 83.2593C6.43625 84.2743 6.43625 85.2626 6.43625 86.3311ZM6.46295 89.6165C6.46295 90.7117 6.46295 91.7267 6.46295 92.7418C9.6674 92.7418 12.765 92.7418 15.9161 92.7418C15.9161 91.6733 15.9161 90.685 15.9161 89.6165C12.765 89.6165 9.6407 89.6165 6.46295 89.6165ZM28.7339 80.3211C28.7339 79.1458 28.7339 78.0239 28.7339 76.8486C25.5294 76.8486 22.4051 76.8486 19.2808 76.8486C19.2808 78.0506 19.2808 79.1725 19.2808 80.3745C22.6187 77.7034 24.8618 77.6767 28.7339 80.3211ZM28.7339 92.7685C28.7339 91.5398 28.7339 90.4179 28.7339 89.1892C25.5294 91.9137 22.4051 91.8603 19.2808 89.2159C19.2808 90.4446 19.2808 91.5932 19.2808 92.7418C22.4318 92.7685 25.5294 92.7685 28.7339 92.7685ZM40.0296 86.3311C41.6585 86.3311 43.2073 86.3311 44.7027 86.3311C44.7027 85.2359 44.7027 84.2476 44.7027 83.2593C43.1005 83.2593 41.5784 83.2593 40.0296 83.2593C40.0296 84.2743 40.0296 85.2626 40.0296 86.3311ZM48.014 86.3311C49.5895 86.3311 51.1383 86.3311 52.7139 86.3311C52.7139 85.2626 52.7139 84.2476 52.7139 83.2593C51.1116 83.2593 49.5628 83.2593 48.014 83.2593C48.014 84.3277 48.014 85.3161 48.014 86.3311ZM60.6983 86.3578C60.6983 85.316 60.6983 84.301 60.6983 83.2326C59.1228 83.2326 57.5739 83.2326 56.0518 83.2326C56.0518 84.301 56.0518 85.316 56.0518 86.3578C57.6273 86.3578 59.1228 86.3578 60.6983 86.3578ZM44.7294 89.67C43.0738 89.67 41.525 89.67 40.0296 89.67C40.0296 90.7384 40.0296 91.7267 40.0296 92.7418C41.6318 92.7418 43.1539 92.7418 44.7294 92.7418C44.7294 91.6733 44.7294 90.685 44.7294 89.67ZM48.0407 89.6433C48.0407 90.7384 48.0407 91.7267 48.0407 92.7418C49.6429 92.7418 51.165 92.7418 52.7139 92.7418C52.7139 91.6733 52.7139 90.6583 52.7139 89.6433C51.1116 89.6433 49.5895 89.6433 48.0407 89.6433ZM60.725 89.67C59.0961 89.67 57.5739 89.67 56.0518 89.67C56.0518 90.7651 56.0518 91.7534 56.0518 92.7418C57.654 92.7418 59.1762 92.7418 60.725 92.7418C60.725 91.7 60.725 90.7117 60.725 89.67Z" fill="#ABB910"/>
<path d="M9.58873 24.0134C9.58873 20.4608 9.61544 17.0684 9.58873 13.6494C9.56203 11.6728 10.2029 9.98998 11.5381 8.57429C12.4193 7.6394 12.8199 6.57095 12.7932 5.31553C12.7665 4.14023 12.7932 2.99165 12.7932 1.81636C12.8199 0.587646 13.354 0.0267112 14.5556 0C16.5851 0 18.6146 0 20.6441 0C21.7924 0 22.3798 0.587646 22.3798 1.70952C22.4065 2.91152 22.4065 4.11352 22.3798 5.31553C22.3531 6.73122 22.8338 7.90651 23.9821 8.86811C25.0235 8.01336 25.5576 6.94491 25.5843 5.60935C25.611 4.35392 25.5843 3.07179 25.5843 1.81636C25.5843 0.587646 26.1451 0.0267112 27.32 0C29.3762 0 31.4057 0 33.4352 0C34.6102 0 35.1709 0.587646 35.1709 1.81636C35.1709 3.01836 35.1709 4.22037 35.1709 5.42237C35.1709 6.59766 35.5181 7.6394 36.3459 8.49416C37.7345 9.96327 38.4288 11.6995 38.3754 13.7563C38.322 15.5192 38.3754 17.2821 38.3754 19.0451C38.3754 20.1402 37.7345 20.808 36.7732 20.808C35.8118 20.808 35.1976 20.1402 35.1976 19.0451C35.1976 17.2821 35.3045 15.4925 35.1442 13.7563C35.0641 12.7947 34.7437 11.6728 34.1295 10.9516C32.6341 9.21536 31.8597 7.31886 31.9932 5.0217C32.0199 4.46077 31.9932 3.89983 31.9932 3.28548C30.925 3.28548 29.937 3.28548 28.7887 3.28548C28.7887 4.0601 28.762 4.88815 28.7887 5.68948C28.8154 7.58598 28.1745 9.21536 26.8928 10.5776C25.9848 11.5392 25.5843 12.6077 25.5843 13.9165C25.611 17.2287 25.5843 20.5676 25.5843 23.9599C30.925 23.9599 36.159 23.9599 41.4997 23.9599C41.5798 22.8113 41.5264 21.6093 41.7935 20.4608C42.1673 18.778 42.5946 17.0952 43.2622 15.5192C44.2769 13.222 44.811 10.8715 44.7843 8.3606C44.7576 6.22371 44.7843 4.08681 44.7843 1.94992C44.7843 0.534224 45.3184 0 46.6803 0C48.6029 0 50.5523 0 52.475 0C53.8102 0 54.3709 0.534224 54.3709 1.86978C54.3709 4.27379 54.3442 6.6778 54.3709 9.05509C54.3976 11.2454 54.8516 13.3289 55.9465 15.4391C56.801 14.0768 57.2816 12.6611 57.3618 11.2187C57.522 8.20033 57.522 5.15526 57.5754 2.13689C57.6021 0.480801 58.0561 0.0267112 59.7117 0C61.5542 0 63.3701 0 65.2127 0C66.6547 0 67.162 0.534224 67.1887 2.00334C67.2421 5.0217 67.2421 8.06678 67.4024 11.0851C67.4558 12.1269 67.7495 13.1953 68.2035 14.1569C69.6188 17.2554 70.6602 20.4073 70.3665 23.9332C71.4613 23.9332 72.4761 23.9332 73.5976 23.9332C73.5976 23.586 73.5976 23.212 73.5976 22.8648C73.5976 15.9733 73.5976 9.05509 73.5976 2.16361C73.5976 0.45409 74.0516 0 75.7873 0C81.8224 0 87.8574 0 93.8658 0C95.468 0 95.9754 0.480801 95.9754 2.05676C95.9754 7.58598 95.9754 13.1152 95.9754 18.6444C95.9754 19.9533 95.5481 20.621 94.6402 20.7546C93.7056 20.8881 93.1181 20.4341 92.6641 19.2053C87.4035 19.2053 82.1695 19.2053 76.8555 19.2053C76.8555 20.7813 76.8555 22.3305 76.8555 23.9599C77.2561 23.9599 77.6032 23.9599 77.9771 23.9599C83.3712 23.9599 88.7654 23.9599 94.1595 23.9599C95.4947 23.9599 96.3759 25.0017 95.8953 26.0701C95.6816 26.5242 95.0675 26.8447 94.5868 27.1386C94.3732 27.2721 93.9993 27.1653 93.7056 27.1653C63.2633 27.1653 32.7943 27.1653 2.35201 27.1653C2.11168 27.1653 1.89805 27.1653 1.65772 27.1653C0.696381 27.1119 0.0821947 26.4975 0.055491 25.616C0.0287872 24.6811 0.669677 23.9866 1.68442 23.9866C3.95424 23.9599 6.22406 23.9866 8.49388 23.9866C8.78762 24.0134 9.13477 24.0134 9.58873 24.0134ZM47.9887 3.25876C47.9887 4.00668 47.962 4.67446 47.9887 5.36895C48.2024 9.77629 47.7751 14.0234 45.7189 18.0568C44.7843 19.8464 44.6775 21.9299 44.8377 23.9599C48.0688 23.9599 51.1932 23.9599 54.3709 23.9599C54.4777 21.5292 54.0505 19.2588 53.0892 17.0417C52.5017 15.7062 51.8074 14.3439 51.6471 12.9282C51.3267 10.1235 51.3267 7.29215 51.1932 4.48748C51.1665 4.0601 51.1932 3.65943 51.1932 3.23205C50.0449 3.25876 49.0569 3.25876 47.9887 3.25876ZM92.7175 9.66945C87.3768 9.66945 82.0894 9.66945 76.8555 9.66945C76.8555 11.8063 76.8555 13.8898 76.8555 15.9466C82.1695 15.9466 87.4302 15.9466 92.7175 15.9466C92.7175 13.8631 92.7175 11.8063 92.7175 9.66945ZM67.1353 23.9599C67.2688 21.5025 66.8416 19.2588 65.8802 17.0952C65.3729 15.9199 64.9456 14.6912 64.4917 13.4891C64.2246 12.7412 64.2246 11.6461 63.7173 11.2988C63.1298 10.9249 62.115 11.192 61.2872 11.192C61.2605 11.192 61.2071 11.1653 61.1804 11.192C60.9668 11.379 60.6463 11.5392 60.5662 11.7796C59.9787 13.5426 59.5248 15.3322 58.8305 17.0417C57.9225 19.2588 57.4419 21.5025 57.5754 23.9332C60.8065 23.9599 63.9042 23.9599 67.1353 23.9599ZM22.3264 15.9466C22.5133 13.783 22.4065 11.8598 20.8043 10.1502C19.9765 9.26878 19.5492 7.8798 19.2822 6.65108C19.0419 5.58264 19.2288 4.40735 19.2288 3.25876C18.1072 3.25876 17.0925 3.25876 15.9976 3.25876C15.9976 4.14023 15.9976 4.96828 15.9976 5.79633C16.0243 7.47913 15.5437 9.05509 14.3954 10.177C12.7131 11.8331 12.6864 13.8097 12.8733 15.9466C15.9976 15.9466 19.122 15.9466 22.3264 15.9466ZM76.7754 6.33055C82.0627 6.33055 87.3768 6.33055 92.6908 6.33055C92.6908 5.28881 92.6908 4.27379 92.6908 3.28548C87.3501 3.28548 82.0894 3.28548 76.7754 3.28548C76.7754 4.32721 76.7754 5.28881 76.7754 6.33055ZM12.8199 23.9332C16.051 23.9332 19.2021 23.9332 22.3264 23.9332C22.3264 22.3305 22.3264 20.808 22.3264 19.2588C19.122 19.2588 15.9976 19.2588 12.8199 19.2588C12.8199 20.8347 12.8199 22.3573 12.8199 23.9332ZM60.8599 3.23205C60.8599 4.80801 60.8599 6.35726 60.8599 7.93322C61.9014 7.93322 62.9161 7.93322 63.9042 7.93322C63.9042 6.33055 63.9042 4.7813 63.9042 3.23205C62.8627 3.23205 61.9014 3.23205 60.8599 3.23205Z" fill="#ABB910"/>
<path d="M3.20468 60.7945C3.20468 57.2419 3.23139 53.8496 3.20468 50.4305C3.17798 48.4539 3.81887 46.7711 5.15406 45.3554C6.03528 44.4205 6.43584 43.3521 6.40914 42.0966C6.38243 40.8946 6.38243 39.6926 6.40914 38.4906C6.43584 37.3688 6.99662 36.7811 8.14488 36.7811C10.1744 36.7544 12.2038 36.7544 14.2333 36.7811C15.4083 36.7811 15.9691 37.3688 15.9958 38.5708C15.9958 39.6926 16.0225 40.8412 15.9958 41.9631C15.9424 43.4055 16.423 44.6342 17.5713 45.6225C18.6395 44.7945 19.1735 43.6993 19.2002 42.3905C19.2269 41.0816 19.2002 39.7995 19.2002 38.4906C19.2269 37.3421 19.7877 36.7811 20.936 36.7544C22.9922 36.7277 25.0751 36.7277 27.1312 36.7544C28.1994 36.7544 28.7869 37.3688 28.7869 38.4372C28.8136 39.7461 28.6534 41.0549 28.8403 42.337C28.9738 43.2986 29.321 44.3938 29.9351 45.115C31.297 46.7711 32.0981 48.5073 31.9913 50.6709C31.9646 51.3654 32.018 52.0599 31.9913 52.7811C31.9646 53.716 31.297 54.3571 30.4158 54.3571C29.5079 54.3571 28.867 53.7427 28.8136 52.8078C28.7869 52.3003 28.7869 51.8195 28.8136 51.312C28.9204 49.6559 28.4397 48.2936 27.2648 47.0649C26.1165 45.8629 25.5824 44.3137 25.6091 42.6042C25.6091 41.7761 25.6091 40.9481 25.6091 40.0666C24.541 40.0666 23.5262 40.0666 22.4047 40.0666C22.4047 40.8679 22.378 41.6693 22.4047 42.4706C22.4581 44.3671 21.7905 45.9965 20.5087 47.3587C19.5741 48.3471 19.1735 49.4689 19.2002 50.8045C19.2269 54.09 19.2002 57.4021 19.2002 60.741C22.4047 60.741 25.5557 60.741 28.7602 60.741C28.9204 59.4856 28.3062 57.5624 30.4959 57.6426C32.4453 57.7227 31.8578 59.4589 32.018 60.7143C33.0328 60.7143 34.0475 60.7143 35.1691 60.7143C35.1691 60.3404 35.1691 59.9931 35.1691 59.6459C35.1691 55.3721 35.1691 51.125 35.1691 46.8512C35.1691 45.302 35.6764 44.7945 37.1719 44.7945C43.3137 44.7945 49.4289 44.7945 55.5707 44.7945C57.0662 44.7945 57.5735 45.302 57.5735 46.8512C57.5735 51.4456 57.5735 56.0399 57.5735 60.7143C59.1491 60.7143 60.6979 60.7143 62.3001 60.7143C62.3001 57.5891 62.3001 54.4906 62.3001 51.2853C62.0865 51.2052 61.8194 51.125 61.5791 50.9915C60.8848 50.5908 60.6445 49.9497 60.8047 49.2018C60.9649 48.5073 61.4723 48.0265 62.22 47.9998C66.5727 47.9731 70.9521 47.9731 75.3048 47.9998C76.0525 47.9998 76.5332 48.5073 76.6934 49.2018C76.8536 49.9497 76.6133 50.5908 75.8923 50.9648C75.6787 51.0983 75.4116 51.1517 75.1713 51.2586C75.1713 54.3838 75.1713 57.509 75.1713 60.6876C76.8269 60.6876 78.4292 60.6876 79.9513 60.6876C79.9513 56.307 79.8979 51.8996 79.978 47.519C80.0047 45.8095 80.9927 44.5006 82.5148 43.726C82.9955 43.4589 83.1824 43.1918 83.1557 42.6576C83.129 41.322 83.129 39.9865 83.1557 38.6509C83.1557 37.3153 83.6898 36.7544 84.9983 36.7544C86.9744 36.7544 88.9237 36.7544 90.8998 36.7544C92.1816 36.7544 92.7424 37.3153 92.7424 38.5708C92.7424 39.9597 92.7157 41.3754 92.7691 42.7644C92.7691 43.085 93.0361 43.4856 93.3031 43.6459C95.0656 44.6876 95.9468 46.1835 95.9468 48.2402C95.9201 51.7928 95.9468 55.3721 95.9201 58.9247C95.9201 59.4856 95.7599 60.0466 95.7332 60.6075C95.7065 60.9547 95.6798 61.302 95.7866 61.6225C96.2673 62.8779 95.5997 63.9197 94.2378 63.9464C94.0509 63.9464 93.8372 63.9464 93.6503 63.9464C63.208 63.9464 32.7657 63.9464 2.29676 63.9464C2.00302 63.9464 1.68257 63.9731 1.38883 63.9464C0.534309 63.8395 -0.0531731 63.1718 -0.0264694 62.317C0.0269381 61.4355 0.507606 60.9013 1.38883 60.7945C1.97631 60.7411 2.53709 60.7945 3.20468 60.7945ZM15.9157 52.7544C16.156 50.5374 16.0225 48.5608 14.3134 46.8779C13.6191 46.2102 13.2186 45.115 13.005 44.1267C12.7379 42.8178 12.7913 41.4289 12.6845 40.0666C11.6698 40.0666 10.655 40.0666 9.58688 40.0666C9.58688 40.9481 9.58688 41.7761 9.58688 42.6042C9.61359 44.287 9.13292 45.8629 7.98466 46.9848C6.30232 48.6409 6.27562 50.6175 6.46254 52.7544C9.61359 52.7544 12.7379 52.7544 15.9157 52.7544ZM65.6381 51.2319C65.6381 54.4639 65.6381 57.6158 65.6381 60.741C67.7744 60.741 69.8306 60.741 71.8867 60.741C71.8867 57.5357 71.8867 54.4105 71.8867 51.2319C69.8038 51.2319 67.7477 51.2319 65.6381 51.2319ZM92.7424 52.7811C92.7424 51.0983 92.7958 49.5224 92.7157 47.9197C92.689 47.0115 92.0214 46.4239 91.0333 46.3971C88.9771 46.3704 86.8942 46.3704 84.8381 46.3971C83.9835 46.3971 83.2625 46.8512 83.2091 47.706C83.1023 49.3888 83.1824 51.0716 83.1824 52.7544C86.4136 52.7811 89.5112 52.7811 92.7424 52.7811ZM6.46254 56.0399C6.46254 57.6426 6.46254 59.1918 6.46254 60.7143C9.66699 60.7143 12.818 60.7143 15.9424 60.7143C15.9424 59.1117 15.9424 57.6158 15.9424 56.0399C12.7913 56.0399 9.66699 56.0399 6.46254 56.0399ZM83.1557 56.0399C83.1557 57.135 83.1023 58.1768 83.1557 59.1918C83.2091 60.1267 83.8233 60.7678 84.7579 60.7678C86.8942 60.8212 89.0305 60.8212 91.1401 60.7678C92.0481 60.741 92.6356 60.1534 92.689 59.2452C92.7691 58.2035 92.7157 57.135 92.7157 56.0399C89.5379 56.0399 86.4136 56.0399 83.1557 56.0399ZM38.4269 60.7143C40.5899 60.7143 42.6728 60.7143 44.729 60.7143C44.729 58.5774 44.729 56.5474 44.729 54.4372C42.5927 54.4372 40.5365 54.4372 38.4269 54.4372C38.4269 56.5741 38.4269 58.6042 38.4269 60.7143ZM48.0136 54.3304C50.1499 54.3304 52.2328 54.3304 54.289 54.3304C54.289 52.1935 54.289 50.11 54.289 48.0532C52.1527 48.0532 50.1232 48.0532 48.0136 48.0532C48.0136 50.1367 48.0136 52.1935 48.0136 54.3304ZM44.729 51.1517C44.729 50.0566 44.729 49.0683 44.729 48.0532C42.5927 48.0532 40.5365 48.0532 38.4536 48.0532C38.4536 49.1217 38.4536 50.1367 38.4536 51.1517C40.5632 51.1517 42.6194 51.1517 44.729 51.1517ZM48.0136 60.7143C50.1766 60.7143 52.2595 60.7143 54.3157 60.7143C54.3157 59.6459 54.3157 58.6576 54.3157 57.6426C52.2061 57.6426 50.1232 57.6426 48.0136 57.6426C48.0136 58.6843 48.0136 59.6726 48.0136 60.7143ZM86.4136 40.0399C86.4136 41.135 86.4136 42.1234 86.4136 43.1384C87.4817 43.1384 88.4698 43.1384 89.4845 43.1384C89.4845 42.0699 89.4845 41.0549 89.4845 40.0399C88.4431 40.0399 87.455 40.0399 86.4136 40.0399Z" fill="#ABB910"/>
<path d="M47.9882 33.6023C32.6602 33.6023 17.3323 33.6023 2.031 33.6023C0.722516 33.6023 0.0549219 33.0681 0.0282181 32.0531C0.00151437 31.1983 0.588997 30.5038 1.44352 30.4237C1.73726 30.397 2.031 30.4237 2.35144 30.4237C32.7937 30.4237 63.236 30.4237 93.6783 30.4237C93.9987 30.4237 94.3459 30.3703 94.6663 30.4504C95.4674 30.6107 95.9481 31.1182 95.9748 31.9729C96.0015 32.801 95.4674 33.4955 94.6663 33.6023C94.3459 33.6557 93.9987 33.629 93.6783 33.629C78.4304 33.6023 63.2093 33.6023 47.9882 33.6023Z" fill="#ABB910"/>
<path d="M81.5552 76.7949C83.5847 76.7949 85.6142 76.7949 87.6437 76.7949C89.0323 76.7949 89.5397 77.3291 89.5664 78.7448C89.5664 80.668 89.5664 82.618 89.5664 84.5412C89.5664 85.8233 89.0056 86.3842 87.7772 86.3842C83.6381 86.3842 79.5257 86.3842 75.3867 86.3842C74.185 86.3842 73.5975 85.8233 73.5708 84.648C73.5441 82.618 73.5441 80.5879 73.5708 78.5579C73.5708 77.3826 74.1583 76.8216 75.36 76.7949C77.4162 76.7949 79.499 76.7949 81.5552 76.7949ZM76.8287 80.027C76.8287 81.0954 76.8287 82.1105 76.8287 83.0988C80.0331 83.0988 83.1842 83.0988 86.3085 83.0988C86.3085 82.0303 86.3085 81.042 86.3085 80.027C83.1575 80.027 80.0331 80.027 76.8287 80.027Z" fill="#ABB910"/>
</g>
<defs>
<clipPath id="clip0_2734_20249">
<rect width="96" height="96" fill="white"/>
</clipPath>
</defs>
</svg>
