<svg width="96" height="96" viewBox="0 0 96 96" fill="none" xmlns="http://www.w3.org/2000/svg">
<g clip-path="url(#clip0_2734_20267)">
<path d="M88.2844 95.9993C86.4151 95.9993 84.5459 95.9993 82.6499 95.9993C81.9289 95.5453 81.6351 94.9042 81.6886 94.0227C81.742 93.1947 81.7153 92.3666 81.7153 91.5386C59.1773 91.5386 36.7461 91.5386 14.2616 91.5386C14.2616 92.3933 14.2082 93.2214 14.2883 94.0227C14.3684 94.9042 14.0479 95.5185 13.3269 95.9993C11.4577 95.9993 9.58841 95.9993 7.69244 95.9993C6.91804 95.4651 6.75781 94.7439 6.75781 93.8357C6.78452 67.7923 6.75781 41.7489 6.75781 15.7055C6.75781 11.7523 6.75781 7.7723 6.75781 3.81904C6.75781 2.5369 7.29189 1.52188 8.30663 0.773964C9.535 -0.107505 10.8702 -0.21435 12.2054 0.45343C13.5406 1.12121 14.2616 2.24308 14.2616 3.76562C14.2616 11.1379 14.2616 18.5102 14.2616 25.8825C14.2616 26.2564 14.2616 26.6037 14.2616 26.9776C15.8104 26.9776 17.2524 26.9776 18.7478 26.9776C18.7478 26.577 18.7478 26.2297 18.7478 25.8825C18.7478 19.4184 18.7478 12.9543 18.7478 6.49016C18.7478 5.02104 19.2285 4.54024 20.7239 4.54024C28.4146 4.54024 36.0785 4.54024 43.7692 4.54024C45.2646 4.54024 45.7453 4.99433 45.7453 6.49016C45.7453 12.981 45.7453 19.4718 45.7453 25.9893C45.7453 26.3099 45.7453 26.6571 45.7453 26.9776C47.3208 26.9776 48.7628 26.9776 50.2315 26.9776C50.2315 26.577 50.2315 26.2297 50.2315 25.8825C50.2315 19.4451 50.2315 13.0077 50.2315 6.57029C50.2315 5.02104 50.6855 4.54024 52.2076 4.54024C59.8983 4.54024 67.5623 4.54024 75.2529 4.54024C76.7484 4.54024 77.2023 5.02104 77.2023 6.49016C77.2023 12.981 77.2023 19.4718 77.2023 25.9893C77.2023 26.3099 77.2023 26.6571 77.2023 26.9509C78.7779 26.9509 80.2198 26.9509 81.6886 26.9509C81.6886 26.4968 81.6886 26.1229 81.6886 25.7489C81.6886 18.5903 81.6886 11.4584 81.6886 4.29984C81.6886 3.79233 81.6886 3.28482 81.7954 2.80401C82.3027 0.90752 84.0652 -0.21435 86.0146 0.052762C87.8571 0.293163 89.1656 1.92254 89.1656 3.97931C89.1656 34.0027 89.1656 63.9993 89.1923 94.0227C89.219 94.8775 88.9787 95.5185 88.2844 95.9993ZM53.3292 40.5469C53.2758 40.6538 53.2491 40.6805 53.2491 40.7072C53.2491 41.5887 53.2491 42.4434 53.2223 43.3249C53.1956 44.42 52.6616 44.981 51.54 44.981C49.1634 45.0077 46.7867 45.0077 44.4101 44.981C43.2886 44.981 42.7545 44.42 42.7278 43.3249C42.7278 42.39 42.7278 41.4818 42.7278 40.5736C35.6513 40.5736 28.7083 40.5736 21.8187 40.5736C21.8187 45.5686 21.8187 50.4835 21.8187 55.3983C39.3097 55.3983 56.7205 55.3983 74.1581 55.3983C74.1581 50.4301 74.1581 45.5152 74.1581 40.5469C67.2151 40.5469 60.2721 40.5469 53.3292 40.5469ZM53.2491 83.8992C53.2491 83.4718 53.2491 83.1246 53.2491 82.7773C53.2491 77.3015 53.2491 71.8524 53.2491 66.3766C53.2491 64.9609 53.703 64.4801 55.145 64.4801C61.8477 64.4801 68.577 64.4801 75.2797 64.4801C76.7751 64.4801 77.2023 64.9342 77.2023 66.4568C77.2023 71.9326 77.2023 77.3817 77.2023 82.8574C77.2023 83.2047 77.2023 83.5252 77.2023 83.8992C78.7511 83.8992 80.1932 83.8992 81.6352 83.8992C81.6352 76.9008 81.6352 69.9827 81.6352 63.0645C59.1506 63.0645 36.7461 63.0645 14.2883 63.0645C14.2883 70.0361 14.2883 76.9543 14.2883 83.8992C15.7837 83.8992 17.2257 83.8992 18.7211 83.8992C18.7211 83.4985 18.7211 83.1513 18.7211 82.804C18.7211 78.8508 18.7211 74.8708 18.7211 70.9175C18.7211 69.4751 19.1751 69.021 20.6171 69.021C29.3225 69.021 38.0546 69.021 46.76 69.021C48.2555 69.021 48.7094 69.4751 48.7094 70.971C48.7094 74.9242 48.7094 78.9042 48.7094 82.8574C48.7094 83.2047 48.7094 83.5252 48.7094 83.8992C50.2849 83.8992 51.7002 83.8992 53.2491 83.8992ZM36.7461 7.58532C36.7461 8.57363 36.7461 9.48181 36.7461 10.39C36.7194 11.4852 36.2388 12.0461 35.1706 12.0461C33.2479 12.0728 31.2986 12.0728 29.3492 12.0461C28.281 12.0461 27.7737 11.4851 27.747 10.4167C27.7203 9.48181 27.747 8.57363 27.747 7.61203C25.6908 7.61203 23.7414 7.61203 21.8187 7.61203C21.8187 14.1028 21.8187 20.5135 21.8187 26.9509C28.8151 26.9509 35.7581 26.9509 42.7011 26.9509C42.7011 20.4601 42.7011 14.0494 42.7011 7.58532C40.725 7.58532 38.8023 7.58532 36.7461 7.58532ZM74.1581 27.0043C74.1581 20.4601 74.1581 14.0227 74.1581 7.61203C72.1553 7.61203 70.2326 7.61203 68.2299 7.61203C68.2299 8.54692 68.2299 9.40168 68.2299 10.2831C68.2299 11.5386 67.7225 12.0461 66.4941 12.0728C64.6783 12.0995 62.8624 12.0995 61.0733 12.0728C59.7381 12.0728 59.2574 11.5653 59.2574 10.2564C59.2574 9.37497 59.2574 8.46679 59.2574 7.61203C57.1745 7.61203 55.2518 7.61203 53.3292 7.61203C53.3292 14.1028 53.3292 20.567 53.3292 27.0043C60.2988 27.0043 67.1884 27.0043 74.1581 27.0043ZM81.6886 34.5636C59.1773 34.5636 36.7728 34.5636 14.3417 34.5636C14.3417 41.5352 14.3417 48.4534 14.3417 55.3983C15.8371 55.3983 17.2791 55.3983 18.7745 55.3983C18.7745 54.971 18.7745 54.6504 18.7745 54.3032C18.7745 49.3349 18.7745 44.3666 18.7745 39.3983C18.7745 38.0094 19.2285 37.5018 20.5904 37.5018C38.8557 37.5018 57.1211 37.5018 75.3865 37.5018C76.7484 37.5018 77.229 38.0094 77.229 39.3716C77.229 44.3666 77.229 49.3616 77.229 54.3566C77.229 54.6771 77.229 55.0244 77.229 55.3716C78.7779 55.3716 80.2198 55.3716 81.6886 55.3716C81.6886 48.4267 81.6886 41.5352 81.6886 34.5636ZM74.1581 83.8992C74.1581 78.37 74.1581 72.9743 74.1581 67.5786C72.636 67.5786 71.194 67.5786 69.7253 67.5786C69.7253 68.5135 69.7253 69.395 69.7253 70.2765C69.7253 71.4518 69.1912 71.986 68.0162 72.0127C66.147 72.0127 64.2777 72.0127 62.4084 72.0127C61.2869 72.0127 60.7528 71.4518 60.7261 70.3566C60.7261 69.4217 60.7261 68.5135 60.7261 67.5786C59.1506 67.5786 57.7086 67.5786 56.2933 67.5786C56.2933 73.0544 56.2933 78.4768 56.2933 83.9259C62.2749 83.8992 68.2032 83.8992 74.1581 83.8992ZM21.792 83.8725C29.8032 83.8725 37.7342 83.8725 45.6652 83.8725C45.6652 79.8658 45.6652 75.966 45.6652 72.0394C43.1817 72.0394 40.7517 72.0394 38.3751 72.0394C38.3217 72.1195 38.2682 72.1463 38.2682 72.1463C38.2682 73.0277 38.2415 73.8825 38.2415 74.764C38.2148 75.9392 37.7075 76.4735 36.5058 76.4735C34.6899 76.4735 32.8741 76.4735 31.0849 76.4735C29.7497 76.4735 29.2691 75.966 29.2424 74.6037C29.2424 73.7489 29.2424 72.8942 29.2424 72.0394C26.6788 72.0394 24.2488 72.0394 21.792 72.0394C21.792 75.9927 21.792 79.8925 21.792 83.8725ZM86.2015 92.9543C86.2015 92.5269 86.2015 92.1796 86.2015 91.8591C86.2015 62.7973 86.2015 33.7089 86.2015 4.64709C86.2015 4.03273 86.4151 3.12455 85.4805 3.09784C84.5192 3.07113 84.7328 3.97931 84.7328 4.62037C84.7328 33.7089 84.7328 62.8241 84.7328 91.9125C84.7328 92.2598 84.7328 92.5803 84.7328 92.9543C85.2402 92.9543 85.6674 92.9543 86.2015 92.9543ZM11.2707 92.981C11.2707 92.5269 11.2707 92.1529 11.2707 91.779C11.2707 79.4117 11.2707 67.0444 11.2707 54.6771C11.2707 37.9025 11.2707 21.1279 11.2707 4.35326C11.2707 3.76562 11.2975 3.09784 10.523 3.09784C9.77534 3.09784 9.74863 3.76562 9.77534 4.35326C9.77534 4.40669 9.77534 4.48682 9.77534 4.54024C9.77534 33.6821 9.80204 62.824 9.80204 91.966C9.80204 92.2865 9.80204 92.6337 9.80204 92.981C10.3361 92.981 10.7367 92.981 11.2707 92.981ZM81.6886 30.1028C59.1773 30.1028 36.7461 30.1028 14.315 30.1028C14.315 30.5836 14.315 31.011 14.315 31.4918C36.7995 31.4918 59.204 31.4918 81.6886 31.4918C81.6886 30.9843 81.6886 30.5836 81.6886 30.1028ZM81.6886 58.577C59.1773 58.577 36.7461 58.577 14.3417 58.577C14.3417 59.0578 14.3417 59.4852 14.3417 59.9125C36.8262 59.9125 59.2574 59.9125 81.6886 59.9125C81.6886 59.4317 81.6886 59.0311 81.6886 58.577ZM81.6619 87.0511C59.1773 87.0511 36.7461 87.0511 14.315 87.0511C14.315 87.5319 14.315 87.9326 14.315 88.3867C36.7728 88.3867 59.204 88.3867 81.6619 88.3867C81.6619 87.9326 81.6619 87.5052 81.6619 87.0511ZM50.2048 40.5469C48.6827 40.5469 47.2674 40.5469 45.8254 40.5469C45.8254 41.0277 45.8254 41.4818 45.8254 41.9359C47.3208 41.9359 48.7361 41.9359 50.2048 41.9359C50.2048 41.4551 50.2048 41.0544 50.2048 40.5469ZM30.8179 7.58532C30.8179 8.09283 30.8179 8.54692 30.8179 8.9743C31.8326 8.9743 32.7673 8.9743 33.7019 8.9743C33.7019 8.4935 33.7019 8.06612 33.7019 7.58532C32.7406 7.58532 31.8326 7.58532 30.8179 7.58532ZM65.1856 9.00101C65.1856 8.52021 65.1856 8.06612 65.1856 7.61203C64.1709 7.61203 63.2363 7.61203 62.2749 7.61203C62.2749 8.09283 62.2749 8.52021 62.2749 9.00101C63.263 9.00101 64.1976 9.00101 65.1856 9.00101ZM66.681 68.9409C66.681 68.4067 66.681 68.006 66.681 67.5252C65.693 67.5252 64.7584 67.5252 63.797 67.5252C63.797 68.0327 63.797 68.4601 63.797 68.9409C64.7851 68.9409 65.693 68.9409 66.681 68.9409ZM35.1973 73.4551C35.1973 72.9209 35.1973 72.5202 35.1973 72.0661C34.2093 72.0661 33.2746 72.0661 32.3133 72.0661C32.3133 72.5736 32.3133 73.001 32.3133 73.4551C33.3013 73.4551 34.236 73.4551 35.1973 73.4551Z" fill="#FF8C00"/>
</g>
<defs>
<clipPath id="clip0_2734_20267">
<rect width="96" height="96" fill="white"/>
</clipPath>
</defs>
</svg>
