<svg width="25" height="25" viewBox="0 0 25 25" fill="none" xmlns="http://www.w3.org/2000/svg">
<g clip-path="url(#clip0_2777_21354)">
<path d="M11.8626 23.6167C11.3107 23.5554 10.5136 23.6779 9.77781 23.4329C7.5704 22.6977 5.30166 22.2689 2.97161 22.3914C2.2358 22.4527 1.62263 21.9013 1.74527 21.1662C2.11317 18.4706 0.948145 16.0201 0.641559 13.447C0.0283876 8.48474 2.35844 4.25759 6.83459 1.86834C10.6976 -0.214599 15.7869 0.459293 19.3433 3.39991C22.961 6.46306 24.4326 11.4254 22.8997 15.8975C21.2441 20.5535 17.1359 23.4942 11.8626 23.6167ZM7.99961 12.1605C7.99961 11.2416 7.50908 10.9965 6.71196 10.9965C5.91483 10.9965 5.60825 11.4866 5.60825 12.1605C5.60825 12.9569 6.09878 13.3858 6.83459 13.3858C7.63171 13.3245 8.06093 12.8957 7.99961 12.1605ZM11.9239 10.9965C11.1881 10.9353 10.7589 11.4254 10.7589 12.1605C10.6976 12.8957 11.1881 13.3858 11.9239 13.3858C12.6597 13.3858 13.1503 13.0182 13.1503 12.2218C13.1503 11.4254 12.8437 10.9965 11.9239 10.9965ZM18.3009 12.3443C18.3009 11.4254 17.9943 10.9965 17.1972 10.9353C16.4001 10.9353 15.9708 11.2416 15.9095 12.038C15.8482 12.8344 16.3387 13.2632 17.0746 13.3245C17.749 13.3858 18.3009 13.0182 18.3009 12.3443Z" fill="#9BAC25"/>
</g>
<defs>
<clipPath id="clip0_2777_21354">
<rect width="24" height="24" fill="white" transform="translate(0.5 0.34375)"/>
</clipPath>
</defs>
</svg>
