<svg width="20" height="20" viewBox="0 0 20 20" fill="none" xmlns="http://www.w3.org/2000/svg">
<path d="M2 1.42969H18C19.1 1.42969 20 2.39397 20 3.57254V16.4297C20 17.6083 19.1 18.5725 18 18.5725H2C0.9 18.5725 0 17.6083 0 16.4297V3.57254C0 2.39397 0.9 1.42969 2 1.42969Z" fill="#AEAEAE"/>
<path fill-rule="evenodd" clip-rule="evenodd" d="M3.20391 4.40805C3.70792 3.79093 4.57615 3.73535 5.14316 4.28389L9.99979 8.9824L14.8564 4.28389C15.4234 3.73535 16.2917 3.79093 16.7957 4.40805C17.2997 5.02516 17.2486 5.97012 16.6816 6.51867L10.9124 12.1001C10.3919 12.6036 9.60765 12.6036 9.08721 12.1001L3.31799 6.51867C2.75098 5.97012 2.69991 5.02516 3.20391 4.40805Z" fill="white"/>
</svg>
