<svg width="40" height="40" viewBox="0 0 40 40" fill="none" xmlns="http://www.w3.org/2000/svg">
<path opacity="0.99" d="M17.1874 26.8238C16.9685 26.824 16.7517 26.781 16.5495 26.6972C16.3473 26.6134 16.1636 26.4905 16.0091 26.3354L11.3216 21.648C11.0123 21.3348 10.8395 20.912 10.8408 20.4718C10.8422 20.0317 11.0177 19.6099 11.3289 19.2987C11.6401 18.9874 12.0619 18.8119 12.502 18.8106C12.9422 18.8092 13.365 18.982 13.6782 19.2912L17.1873 22.8003L26.3216 13.6662C26.6348 13.357 27.0576 13.1842 27.4978 13.1856C27.9379 13.1869 28.3596 13.3624 28.6709 13.6737C28.9821 13.9849 29.1576 14.4067 29.1589 14.8468C29.1603 15.287 28.9875 15.7098 28.6782 16.023L18.3657 26.3355C18.2112 26.4905 18.0275 26.6134 17.8253 26.6972C17.6231 26.781 17.4063 26.824 17.1874 26.8238Z" fill="white"/>
<path d="M19.9997 3.33398C16.7033 3.33398 13.481 4.31147 10.7402 6.14282C7.99936 7.97418 5.86315 10.5772 4.60169 13.6226C3.34023 16.668 3.01017 20.0191 3.65326 23.2522C4.29635 26.4852 5.88369 29.4549 8.21457 31.7858C10.5454 34.1166 13.5152 35.704 16.7482 36.3471C19.9812 36.9902 23.3323 36.6601 26.3777 35.3986C29.4232 34.1372 32.0261 32.001 33.8575 29.2602C35.6889 26.5193 36.6663 23.297 36.6663 20.0007C36.6613 15.5819 34.9037 11.3456 31.7792 8.22112C28.6547 5.09661 24.4184 3.33904 19.9997 3.33398V3.33398ZM28.678 16.0228L18.3655 26.3353C18.2108 26.4901 18.0271 26.6129 17.8249 26.6967C17.6227 26.7804 17.406 26.8236 17.1871 26.8236C16.9683 26.8236 16.7516 26.7804 16.5494 26.6967C16.3472 26.6129 16.1635 26.4901 16.0087 26.3353L11.3213 21.6478C11.0121 21.3346 10.8392 20.9118 10.8406 20.4716C10.842 20.0314 11.0175 19.6097 11.3287 19.2985C11.6399 18.9872 12.0617 18.8117 12.5018 18.8103C12.942 18.8089 13.3648 18.9817 13.678 19.291L17.1871 22.8001L26.3213 13.666C26.6345 13.3567 27.0574 13.1839 27.4975 13.1853C27.9377 13.1867 28.3594 13.3622 28.6707 13.6735C28.9819 13.9847 29.1574 14.4064 29.1587 14.8466C29.1601 15.2868 28.9873 15.7096 28.678 16.0228Z" fill="#ABB910"/>
</svg>
