<?xml version="1.0" encoding="UTF-8"?> <!-- Generator: Adobe Illustrator 24.1.0, SVG Export Plug-In . SVG Version: 6.00 Build 0) --> <svg xmlns="http://www.w3.org/2000/svg" xmlns:xlink="http://www.w3.org/1999/xlink" id="Слой_1" x="0px" y="0px" viewBox="0 0 1068.7 1068.7" style="enable-background:new 0 0 1068.7 1068.7;" xml:space="preserve"> <style type="text/css"> .st0{fill:#28516F;} .st1{fill:#FFFFFF;} </style> <circle class="st0" cx="534.4" cy="534.4" r="534.4"></circle> <path class="st1" d="M724.6,807.3c17.3,17.3,17.3,45.4,0,62.7c0,0-0.1,0.1-0.1,0.1L694.2,900c-3.5,3.4-8,5.1-12.5,5.1 c-4.6,0-9.1-1.8-12.6-5.3c-6.9-7-6.8-18.2,0.2-25.1l17.7-17.5H402.6c-39.1,0-70.9-31.8-70.9-70.9V501.4L314,518.9 c-7,6.9-18.2,6.8-25.1-0.2c-6.9-7-6.8-18.2,0.2-25.1l29.9-29.5c17.2-17,45.3-17,62.5,0l29.9,29.5c7,6.9,7,18.1,0.2,25.1 c-3.5,3.5-8,5.3-12.6,5.3c-4.5,0-9-1.7-12.4-5.1l-19.5-19.2v286.6c0,19.5,15.9,35.4,35.4,35.4h286.2l-19.5-19.3 c-7-6.9-7-18.1-0.2-25.1c6.9-7,18.1-7,25.1-0.2L724.6,807.3C724.5,807.2,724.5,807.2,724.6,807.3z M684.4,451.3H454.8 c-9.8,0-17.8,8-17.7,17.8c0,9.8,8,17.7,17.7,17.7h229.5c9.8,0,17.7,7.9,17.7,17.7v230.4c0,9.8,7.9,17.7,17.7,17.7 c9.8,0,17.8-7.9,17.8-17.7V504.5C737.5,475.1,713.7,451.3,684.4,451.3z M544.4,755.2c9.8,0,17.7-7.9,17.7-17.7v-78.9 c0-26.9-21.9-48.7-48.7-48.7c-11.8,0-22.6,4.2-31,11.2c-8.4-7-19.2-11.2-31-11.2c-6.8,0-13.2,1.4-19.1,3.9c-3.2-2.9-7.3-4.7-12-4.7 c-9.8,0-17.7,7.9-17.7,17.7v110.8c0,9.8,7.9,17.7,17.7,17.7c9.8,0,17.7-7.9,17.7-17.7v-79c0-7.3,6-13.3,13.3-13.3 c7.3,0,13.3,6,13.3,13.3v79c0,9.8,7.9,17.7,17.7,17.7s17.7-7.9,17.7-17.7v-79c0-7.3,6-13.3,13.3-13.3c7.3,0,13.3,6,13.3,13.3v78.9 C526.6,747.3,534.6,755.2,544.4,755.2z M624.8,547c-0.1,0-0.2,0-0.3,0c-0.1,0-0.2,0-0.3,0c-22.5,0-40.9,18.4-40.9,40.9 c0,9.8,7.9,17.7,17.7,17.7s17.7-7.9,17.7-17.7c0-3,2.5-5.5,5.4-5.5c0.1,0,0.2,0,0.3,0c0.1,0,0.2,0,0.3,0c2.8,0,5.2,2.3,5.4,5.1 c-0.3,1.3-3.1,9.3-20.1,28c-10.5,11.6-20.9,21-21,21.1c-5.4,4.9-7.3,12.7-4.6,19.5c2.6,6.8,9.2,11.3,16.5,11.3h47.9 c9.8,0,17.7-7.9,17.7-17.7c0-9.8-7.9-17.7-17.7-17.7h-6.1c15.7-18.5,22.8-32.3,22.8-44.1C665.7,565.4,647.3,547,624.8,547z"></path> <g> <path class="st1" d="M241.6,285.4c0,13.3-3.5,23.8-10.5,31.3c-7,7.5-16.8,11.3-29.4,11.3c-7.9,0-14.8-1.7-20.8-5.2 s-10.6-8.4-13.8-14.8s-4.8-14-4.8-22.6c0-13.4,3.5-23.8,10.5-31.2c7-7.4,16.8-11.1,29.4-11.1c7.9,0,14.8,1.7,20.8,5.1 c6,3.4,10.6,8.3,13.8,14.7C240,269.3,241.6,276.8,241.6,285.4z M185,285.4c0,8.1,1.3,14.2,4,18.4c2.7,4.2,7,6.2,13,6.2 c6,0,10.2-2.1,12.9-6.2c2.6-4.1,3.9-10.3,3.9-18.4c0-8.1-1.3-14.2-4-18.2c-2.6-4.1-7-6.1-13-6.1c-6,0-10.3,2-12.9,6 S185,277.3,185,285.4z"></path> <path class="st1" d="M327.8,244.6v16.8H301v65.1h-22.3v-65.1h-26.9v-16.8H327.8z"></path> <path class="st1" d="M432.3,326.5h-22.6v-62l0.2-10.2l0.4-11.1c-3.8,3.8-6.4,6.2-7.8,7.4l-12.3,9.9l-10.9-13.6l34.5-27.5h18.6 V326.5z"></path> <path class="st1" d="M489.5,310.8c-2.5,9.9-6.8,21.6-12.9,35.1h-16.1c3.2-13,5.6-25.2,7.4-36.8h20.5L489.5,310.8z"></path> <path class="st1" d="M582.7,304.3h-12.9v22.2h-22.1v-22.2H502v-15.7l46.9-69.1h20.9v67.3h12.9V304.3z M547.7,286.7v-18.2 c0-3,0.1-7.4,0.4-13.2c0.2-5.8,0.4-9.1,0.6-10h-0.6c-1.8,4-4,7.9-6.5,11.7l-19.6,29.7H547.7z"></path> <path class="st1" d="M665.9,326.5h-74.9v-15.7l26.9-27.2c8-8.2,13.2-13.8,15.6-17c2.4-3.1,4.2-6.1,5.3-8.8c1.1-2.7,1.6-5.5,1.6-8.3 c0-4.3-1.2-7.5-3.6-9.6c-2.4-2.1-5.5-3.1-9.5-3.1c-4.2,0-8.2,1-12.1,2.9c-3.9,1.9-8,4.6-12.2,8.1l-12.3-14.6 c5.3-4.5,9.6-7.7,13.1-9.5c3.5-1.9,7.3-3.3,11.4-4.3c4.1-1,8.7-1.5,13.8-1.5c6.7,0,12.6,1.2,17.7,3.7c5.1,2.4,9.1,5.9,11.9,10.3 c2.8,4.4,4.2,9.4,4.2,15.1c0,4.9-0.9,9.6-2.6,13.9s-4.4,8.8-8.1,13.3s-10,11-19.2,19.4l-13.8,13v1h46.7V326.5z"></path> <path class="st1" d="M824.5,326.5h-20.9V262l-1.2,4.5c-2.6,10.3-5,18.1-7.1,23.4l-14.5,36.6H765l-14.7-36.9 c-2.1-5.4-4.3-12.9-6.7-22.6l-1.4-5v64.5h-20.8v-81.9h30.8l14.1,34.9c1.5,3.8,2.8,8.1,4.1,13c1.2,4.9,2.1,9.1,2.5,12.5 c1.6-7.3,2.9-12.6,3.8-15.8c0.9-3.2,1.9-6.1,3-8.8c1.1-2.7,5.9-14.6,14.6-35.8h30.5V326.5z"></path> <path class="st1" d="M883.4,276.6h-43.6v-9.2l15.7-15.8c4.6-4.8,7.7-8,9.1-9.9c1.4-1.8,2.4-3.5,3.1-5.1c0.6-1.6,0.9-3.2,0.9-4.9 c0-2.5-0.7-4.4-2.1-5.6c-1.4-1.2-3.2-1.8-5.5-1.8c-2.4,0-4.8,0.6-7,1.7c-2.3,1.1-4.7,2.7-7.1,4.7l-7.2-8.5c3.1-2.6,5.6-4.5,7.6-5.6 c2-1.1,4.2-1.9,6.6-2.5c2.4-0.6,5.1-0.9,8-0.9c3.9,0,7.3,0.7,10.3,2.1c3,1.4,5.3,3.4,7,6c1.7,2.6,2.5,5.5,2.5,8.8 c0,2.9-0.5,5.6-1.5,8.1c-1,2.5-2.6,5.1-4.7,7.8c-2.1,2.6-5.9,6.4-11.2,11.3l-8,7.6v0.6h27.2V276.6z"></path> </g> </svg> 