<svg width="14" height="14" viewBox="0 0 14 14" fill="none" xmlns="http://www.w3.org/2000/svg">
<g clip-path="url(#clip0_2576_4948)">
<path d="M12.5835 4.326V0.7C12.5835 0.514348 12.5098 0.336301 12.3785 0.205025C12.2472 0.0737498 12.0692 0 11.8835 0C11.6979 0 11.5198 0.0737498 11.3886 0.205025C11.2573 0.336301 11.1835 0.514348 11.1835 0.7V4.326C10.7781 4.47314 10.4279 4.74154 10.1803 5.09472C9.93279 5.44789 9.8 5.86872 9.8 6.3C9.8 6.73128 9.93279 7.15211 10.1803 7.50528C10.4279 7.85846 10.7781 8.12686 11.1835 8.274V13.3C11.1835 13.4857 11.2573 13.6637 11.3886 13.795C11.5198 13.9263 11.6979 14 11.8835 14C12.0692 14 12.2472 13.9263 12.3785 13.795C12.5098 13.6637 12.5835 13.4857 12.5835 13.3V8.274C12.9889 8.12686 13.3392 7.85846 13.5867 7.50528C13.8343 7.15211 13.9671 6.73128 13.9671 6.3C13.9671 5.86872 13.8343 5.44789 13.5867 5.09472C13.3392 4.74154 12.9889 4.47314 12.5835 4.326ZM11.8835 7C11.7451 7 11.6097 6.95895 11.4946 6.88203C11.3795 6.80511 11.2898 6.69579 11.2368 6.56788C11.1838 6.43997 11.17 6.29922 11.197 6.16344C11.224 6.02765 11.2907 5.90292 11.3886 5.80503C11.4865 5.70713 11.6112 5.64046 11.747 5.61345C11.8828 5.58644 12.0235 5.6003 12.1514 5.65328C12.2793 5.70627 12.3886 5.79599 12.4656 5.9111C12.5425 6.02622 12.5835 6.16155 12.5835 6.3C12.5835 6.48565 12.5098 6.6637 12.3785 6.79497C12.2472 6.92625 12.0692 7 11.8835 7ZM7.68353 8.526V0.7C7.68353 0.514348 7.60978 0.336301 7.47851 0.205025C7.34723 0.0737498 7.16918 0 6.98353 0C6.79788 0 6.61983 0.0737498 6.48856 0.205025C6.35728 0.336301 6.28353 0.514348 6.28353 0.7V8.526C5.87813 8.67314 5.52786 8.94154 5.28032 9.29471C5.03279 9.64789 4.9 10.0687 4.9 10.5C4.9 10.9313 5.03279 11.3521 5.28032 11.7053C5.52786 12.0585 5.87813 12.3269 6.28353 12.474V13.3C6.28353 13.4857 6.35728 13.6637 6.48856 13.795C6.61983 13.9263 6.79788 14 6.98353 14C7.16918 14 7.34723 13.9263 7.47851 13.795C7.60978 13.6637 7.68353 13.4857 7.68353 13.3V12.474C8.08894 12.3269 8.43921 12.0585 8.68674 11.7053C8.93428 11.3521 9.06707 10.9313 9.06707 10.5C9.06707 10.0687 8.93428 9.64789 8.68674 9.29471C8.43921 8.94154 8.08894 8.67314 7.68353 8.526ZM6.98353 11.2C6.84509 11.2 6.70975 11.1589 6.59463 11.082C6.47952 11.0051 6.3898 10.8958 6.33682 10.7679C6.28384 10.64 6.26997 10.4992 6.29698 10.3634C6.32399 10.2276 6.39066 10.1029 6.48856 10.005C6.58646 9.90713 6.71118 9.84046 6.84697 9.81345C6.98276 9.78644 7.1235 9.8003 7.25141 9.85328C7.37932 9.90627 7.48864 9.99599 7.56556 10.1111C7.64248 10.2262 7.68353 10.3616 7.68353 10.5C7.68353 10.6857 7.60978 10.8637 7.47851 10.995C7.34723 11.1263 7.16918 11.2 6.98353 11.2ZM2.78353 2.926V0.7C2.78353 0.514348 2.70978 0.336301 2.57851 0.205025C2.44723 0.0737498 2.26919 0 2.08353 0C1.89788 0 1.71983 0.0737498 1.58856 0.205025C1.45728 0.336301 1.38353 0.514348 1.38353 0.7V2.926C0.978127 3.07314 0.627856 3.34154 0.380323 3.69472C0.13279 4.04789 0 4.46872 0 4.9C0 5.33128 0.13279 5.75211 0.380323 6.10528C0.627856 6.45846 0.978127 6.72686 1.38353 6.874V13.3C1.38353 13.4857 1.45728 13.6637 1.58856 13.795C1.71983 13.9263 1.89788 14 2.08353 14C2.26919 14 2.44723 13.9263 2.57851 13.795C2.70978 13.6637 2.78353 13.4857 2.78353 13.3V6.874C3.18894 6.72686 3.53921 6.45846 3.78674 6.10528C4.03428 5.75211 4.16707 5.33128 4.16707 4.9C4.16707 4.46872 4.03428 4.04789 3.78674 3.69472C3.53921 3.34154 3.18894 3.07314 2.78353 2.926ZM2.08353 5.6C1.94509 5.6 1.80975 5.55895 1.69463 5.48203C1.57952 5.40511 1.4898 5.29579 1.43682 5.16788C1.38384 5.03997 1.36997 4.89922 1.39698 4.76344C1.42399 4.62765 1.49066 4.50292 1.58856 4.40503C1.68646 4.30713 1.81118 4.24046 1.94697 4.21345C2.08276 4.18644 2.2235 4.2003 2.35141 4.25328C2.47932 4.30627 2.58864 4.39599 2.66556 4.5111C2.74248 4.62621 2.78353 4.76155 2.78353 4.9C2.78353 5.08565 2.70978 5.2637 2.57851 5.39497C2.44723 5.52625 2.26919 5.6 2.08353 5.6Z" fill="#020F19"/>
</g>
<defs>
<clipPath id="clip0_2576_4948">
<rect width="14" height="14" fill="white"/>
</clipPath>
</defs>
</svg>
