<svg width="141" height="158" viewBox="0 0 141 158" fill="none" xmlns="http://www.w3.org/2000/svg">
<g clip-path="url(#clip0_2734_20525)">
<path d="M114.062 118.888C115.041 118.888 115.476 118.562 115.875 117.728C119.718 109.899 122.219 97.2488 121.059 83.475C120.842 80.8652 122.981 79.0166 125.519 79.0529C127.948 79.0891 129.471 81.0102 129.724 83.5475C130.667 92.8267 129.869 101.743 128.999 105.984C123.38 134.003 99.4868 155.969 68.9954 157.854C59.7138 158.433 50.7223 156.947 42.0208 153.685C11.4569 142.195 -6.05476 109.065 1.92158 77.458C7.14246 56.7973 19.6508 42.0449 39.0116 33.2006C47.3867 29.3947 56.2332 27.6186 65.4423 27.7274C67.6177 27.7636 69.503 29.5759 69.5392 31.7508C69.6117 34.2155 67.9802 36.3179 65.8048 36.3904C62.3968 36.4628 59.6051 37.8765 57.2122 40.16C52.0638 45.0534 49.1633 51.2878 46.8067 57.8485C46.7704 57.8847 46.8792 57.9935 46.9517 58.1022C48.6557 58.1022 46.7341 58.1022 48.4382 58.1022C50.9761 58.1385 52.8614 59.9508 52.8977 62.3793C52.8977 64.9166 51.0486 66.7652 48.4019 66.7652C46.1903 66.7652 47.6043 66.8377 45.3927 66.729C44.4137 66.6927 44.0512 67.0189 43.9062 67.9614C43.3623 71.4411 42.6372 74.8845 42.1659 78.3642C41.7308 81.6627 41.622 84.9974 41.332 88.4771C42.0208 88.4771 42.5284 88.4771 42.9998 88.4771C50.2872 88.4771 115.584 88.4771 122.872 88.4771C125.627 88.4771 127.549 90.2532 127.513 92.8267C127.513 95.364 125.591 97.1401 122.836 97.1401C115.548 97.1401 50.251 97.1401 42.9635 97.1401C42.4922 97.1401 41.9846 97.1401 41.477 97.1401C41.4407 97.4663 41.4045 97.6113 41.4407 97.7925C41.622 104.426 42.4922 111.023 43.8336 117.511C44.0512 118.562 44.45 118.852 45.5014 118.852C58.4086 118.816 71.2795 118.816 84.1867 118.816C86.2533 118.816 86.1083 118.779 86.6159 116.822C88.7187 108.92 89.7701 105.151 90.5315 87.0997C90.8941 85.0336 92.5981 83.6562 94.6285 83.62C96.8038 83.5837 98.6166 84.8161 98.9429 86.9185C99.3055 103.628 95.7887 115.408 95.6074 116.822C95.1723 120.048 95.7887 115.445 95.2811 118.779C101.662 118.852 107.862 118.852 114.062 118.888ZM46.6979 127.587C47.1692 128.892 47.6043 130.088 48.1119 131.285C50.3597 136.649 53.0427 141.76 57.4297 145.711C58.2636 146.472 59.2062 147.124 60.1489 147.704C63.5932 149.807 67.1463 149.807 70.4819 147.632C72.4397 146.327 74.2525 144.66 75.7753 142.884C79.5459 138.461 81.7575 133.206 83.7516 127.624C71.3158 127.587 59.0975 127.587 46.6979 127.587ZM32.3767 97.2488C24.7629 97.2488 16.9679 97.2488 8.8465 97.2488C9.28157 99.8948 9.60788 102.432 10.1155 104.969C11.0581 109.5 12.5809 113.814 14.72 117.91C14.9375 118.344 15.5176 118.816 15.9527 118.816C22.1888 118.888 28.4248 118.852 34.6609 118.852C34.8059 118.852 34.9146 118.779 34.8784 118.816C34.0445 111.603 33.2106 104.462 32.3767 97.2488ZM34.9146 66.7652C32.3042 66.7652 29.5487 66.7652 26.7933 66.7652C23.2764 66.7652 19.7233 66.729 16.2065 66.8015C15.7714 66.8015 15.0826 67.0552 14.9013 67.3814C11.6382 73.7971 9.68039 80.6115 9.02778 87.7884C9.02778 87.9696 9.06404 88.1508 9.06404 88.4046C16.8954 88.4046 24.6904 88.4046 32.3767 88.4046C33.2106 81.1552 34.0445 74.0146 34.9146 66.7652ZM37.4888 127.587C31.9779 127.587 26.5757 127.587 21.1373 127.587C22.6601 132.336 37.9964 143.609 45.9365 145.711C42.0934 140.02 39.5192 133.931 37.4888 127.587ZM92.9969 127.587C90.9666 133.894 88.4287 140.02 84.5855 145.602C91.6192 144.188 105.179 134.402 109.53 127.587C103.946 127.587 98.5079 127.587 92.9969 127.587ZM21.0286 58.0297C26.5032 58.0297 31.9416 58.0297 37.4888 58.0297C39.5192 51.7228 42.0571 45.6333 45.9365 39.9425C38.0327 42.0086 24.2916 52.0127 21.0286 58.0297Z" fill="#595959"/>
<path d="M59.6413 64.7737C60.0401 64.7012 60.3302 64.8824 60.584 65.2086C61.3453 66.1511 62.3605 66.6585 63.5932 66.6585C72.1497 66.6585 80.6698 66.6585 89.2263 66.6585C90.4952 66.6585 91.5467 66.1511 92.3081 65.1361C92.4893 64.9187 92.6343 64.7374 92.9244 64.8099C93.287 64.8824 93.1782 65.2086 93.1782 65.4261C93.1782 69.0146 93.1782 72.603 93.1782 76.2277C93.1782 78.2213 91.5467 79.9249 89.5163 79.9249C80.7786 79.9249 72.0046 79.9249 63.2669 79.9249C61.7804 79.9249 60.729 79.1274 60.0039 77.8225C59.8951 77.6413 59.9313 77.3513 59.6413 77.2788C59.6413 73.0742 59.6413 68.9058 59.6413 64.7737Z" fill="#94AD23"/>
<path d="M111.161 0C111.415 0.362468 111.85 0.434962 112.213 0.652443C113.155 1.1599 113.627 1.88484 113.663 2.89975C113.699 5.76325 113.735 8.62675 113.663 11.5265C113.627 13.1214 112.249 14.2813 110.617 14.2813C103.801 14.2813 96.9488 14.2813 90.1327 14.2813C89.5889 14.2813 89.045 14.2813 88.5012 14.2813C86.7971 14.2813 85.4919 12.9764 85.4919 11.2728C85.4919 8.663 85.4919 6.05322 85.4919 3.4072C85.4919 1.7761 86.1808 0.797431 87.7398 0.217481C87.8486 0.181234 88.0298 0.217481 88.0298 0C95.7161 0 103.439 0 111.161 0Z" fill="#94AD23"/>
<path d="M79.4371 31.6083C79.4371 26.0625 79.4371 20.5168 79.4371 14.9348C79.4371 14.681 79.2921 14.3186 79.6184 14.1736C79.981 13.9923 80.1985 14.3186 80.4161 14.5723C81.2137 15.5147 82.2289 15.9859 83.4978 15.9859C92.9607 15.9859 102.387 15.9859 111.85 15.9859C113.155 15.9859 114.207 15.5147 115.041 14.4998C115.222 14.2461 115.403 14.0648 115.73 14.1736C116.092 14.2823 115.947 14.6085 115.947 14.826C115.947 18.6682 115.947 22.4741 115.947 26.3163C115.947 26.8962 115.802 27.0775 115.222 27.0775C111.488 27.0412 107.789 27.0775 104.055 27.0775C101.553 27.0775 99.9943 28.6361 99.9943 31.1371C99.9943 39.7639 99.9943 48.4269 99.9943 57.0536C99.9943 57.7785 99.8131 57.9598 99.0879 57.9235C97.6014 57.851 97.6014 57.9235 97.6014 56.4374C97.6014 55.3138 97.6014 54.1539 97.6014 52.994C97.6014 50.6742 96.0062 49.0793 93.6858 49.043C90.4952 49.0068 87.3047 49.043 84.1504 49.043C82.7727 49.043 81.4312 49.0068 80.0897 49.043C79.5459 49.043 79.4009 48.8618 79.4009 48.3181C79.4371 42.7723 79.4371 37.1903 79.4371 31.6083Z" fill="#94AD23"/>
<path d="M102.242 53.2111C102.242 49.9489 102.242 46.7229 102.242 43.4607C102.242 43.207 102.097 42.8445 102.496 42.7357C102.822 42.627 103.004 42.917 103.185 43.0982C104.019 44.1131 105.07 44.5481 106.375 44.5481C116.491 44.5481 126.643 44.5481 136.758 44.5481C138.136 44.5481 139.223 44.1131 140.057 43.0257C140.239 42.772 140.456 42.627 140.782 42.7357C141.145 42.8445 141 43.1707 141 43.3882C141 49.8039 141 56.2558 141 62.6715C141 64.9913 139.332 66.6587 137.012 66.6587C133.495 66.6587 129.978 66.6587 126.498 66.6587C125.954 66.6587 125.845 66.4774 125.845 65.97C125.881 62.9252 125.772 59.8805 125.881 56.872C125.954 54.9872 124.83 53.4286 122.546 53.3923C119.21 53.3561 115.875 53.3561 112.503 53.3923C110.327 53.4286 109.167 54.661 109.167 56.8358C109.167 59.8443 109.167 62.8527 109.167 65.8975C109.167 66.5137 108.986 66.6949 108.369 66.6587C107.681 66.6224 106.956 66.6224 106.267 66.6587C104.091 66.7312 102.17 64.9551 102.242 62.6353C102.351 59.518 102.242 56.4008 102.242 53.2111Z" fill="#94AD23"/>
<path d="M119.355 28.7784C123.162 28.7784 126.969 28.7784 130.776 28.7784C132.842 28.7784 134.111 30.0108 134.111 32.0769C134.111 34.5779 134.111 37.079 134.111 39.58C134.111 41.6823 132.842 42.9147 130.74 42.9147C123.126 42.9147 115.512 42.9147 107.934 42.9147C105.723 42.9147 104.49 41.6823 104.49 39.4713C104.49 37.0065 104.49 34.5779 104.49 32.1131C104.49 30.0108 105.723 28.7422 107.826 28.7422C111.669 28.7784 115.512 28.7784 119.355 28.7784Z" fill="#94AD23"/>
<path d="M75.2677 64.9175C72.4034 64.9175 69.5755 64.9175 66.7112 64.9175C64.7171 64.9175 63.4482 63.6851 63.4482 61.6915C63.4119 59.1543 63.4482 56.617 63.4482 54.0435C63.4482 52.0136 64.7534 50.7812 66.7475 50.7812C72.4397 50.7812 78.0957 50.7812 83.7879 50.7812C85.8545 50.7812 87.1234 52.0136 87.1234 54.0797C87.1234 56.617 87.1234 59.1543 87.1234 61.7278C87.1234 63.6489 85.8545 64.9175 83.9691 64.9175C81.0687 64.9175 78.1682 64.9175 75.2677 64.9175Z" fill="#94AD23"/>
</g>
<defs>
<clipPath id="clip0_2734_20525">
<rect width="141" height="158" fill="white"/>
</clipPath>
</defs>
</svg>
