<svg width="140" height="140" viewBox="0 0 140 140" fill="none" xmlns="http://www.w3.org/2000/svg">
<g clip-path="url(#clip0_2803_19361)">
<path d="M131.522 139.999C129.475 139.341 127.977 137.916 126.479 136.455C114.967 124.91 103.42 113.365 91.8716 101.857C91.5427 101.528 91.2138 101.236 90.8849 100.943C64.3905 121.147 29.491 113.694 11.7307 91.0059C-5.29883 69.1583 -3.65435 36.8619 15.787 17.1333C36.2151 -3.54522 68.1546 -5.70075 90.9215 11.7992C113.067 28.8243 121.509 63.9339 100.752 91.1155C101.117 91.3713 101.556 91.627 101.921 91.9924C113.469 103.537 124.98 115.082 136.565 126.59C138.027 128.052 139.379 129.55 140 131.559C140 132.546 140 133.569 140 134.555C139.086 137.295 137.259 139.085 134.518 140.035C133.532 139.999 132.545 139.999 131.522 139.999ZM56.2412 98.6416C79.4101 98.8243 98.5226 79.7898 98.6688 56.4078C98.7784 33.1719 79.8121 14.1375 56.3874 14.0278C33.182 13.9548 14.1426 32.8066 13.9233 56.1155C13.704 79.2784 32.7434 98.4589 56.2412 98.6416Z" fill="white"/>
<path d="M61.4303 51.1844C61.7958 51.1844 62.0516 51.1844 62.3439 51.1844C67.4601 51.1844 72.6128 51.1844 77.7289 51.1844C80.6525 51.1844 82.9182 53.4861 82.9182 56.3723C82.9182 59.1855 80.6159 61.4506 77.7289 61.4506C72.6128 61.4506 67.4601 61.4506 62.3439 61.4506C62.0881 61.4506 61.7958 61.4506 61.4669 61.4506C61.4669 61.7794 61.4669 62.0717 61.4669 62.3274C61.4669 67.4423 61.4669 72.5571 61.4669 77.6719C61.4669 80.5947 59.2377 82.8963 56.4238 82.9329C53.5003 82.9694 51.1615 80.7043 51.1615 77.7084C51.1615 72.5936 51.1615 67.4788 51.1615 62.364C51.1615 62.1082 51.1615 61.816 51.1615 61.4506C50.8326 61.4506 50.5768 61.4506 50.2844 61.4506C45.1683 61.4506 40.0156 61.4506 34.8994 61.4506C31.9393 61.4506 29.6736 59.1489 29.7102 56.2262C29.7467 53.413 32.0124 51.1844 34.9359 51.1844C40.0521 51.1844 45.1683 51.1844 50.2479 51.1844C50.5402 51.1844 50.796 51.1844 51.1615 51.1844C51.1615 50.8556 51.1615 50.5999 51.1615 50.3441C51.1615 45.2293 51.1615 40.078 51.1615 34.9631C51.1615 32.0404 53.3907 29.7753 56.2045 29.7387C59.0915 29.7022 61.3938 31.9673 61.4303 34.9266C61.4669 40.0414 61.4303 45.1563 61.4303 50.2711C61.4303 50.5268 61.4303 50.8191 61.4303 51.1844Z" fill="white"/>
</g>
<defs>
<clipPath id="clip0_2803_19361">
<rect width="140" height="140" fill="white"/>
</clipPath>
</defs>
</svg>
