<svg width="60" height="40" viewBox="0 0 60 40" fill="none" xmlns="http://www.w3.org/2000/svg">
<g clip-path="url(#clip0_3079_23925)">
<path d="M50.4375 40C48.9375 40 47.625 39.4545 46.875 38.1818C46.125 36.9091 46.125 35.6364 46.6875 34.3636L51.1875 25.4545H39.375C37.875 25.4545 36.5625 24.9091 35.4375 23.8182C34.3125 22.7273 33.75 21.4545 33.75 20V5.45455C33.75 4 34.3125 2.72727 35.4375 1.63636C36.5625 0.545455 37.875 0 39.375 0H54.375C55.875 0 57.1875 0.545455 58.3125 1.63636C59.4375 2.72727 60 4 60 5.45455V24.9091C60 25.2727 60 25.8182 59.8125 26.1818C59.625 26.5455 59.625 26.9091 59.4375 27.2727L54 37.8182C53.625 38.5455 53.25 39.0909 52.5 39.4545C51.9375 39.8182 51.1875 40 50.4375 40ZM16.6875 40C15 40 13.875 39.4545 13.125 38.1818C12.375 36.9091 12.375 35.6364 12.9375 34.3636L17.4375 25.4545H5.625C4.125 25.4545 2.8125 24.9091 1.6875 23.8182C0.5625 22.7273 0 21.4545 0 20V5.45455C0 4 0.5625 2.72727 1.6875 1.63636C2.8125 0.545455 4.125 0 5.625 0H20.625C22.125 0 23.4375 0.545455 24.5625 1.63636C25.6875 2.72727 26.25 4 26.25 5.45455V24.9091C26.25 25.2727 26.25 25.8182 26.0625 26.1818C25.875 26.5455 25.875 26.9091 25.6875 27.2727L20.25 37.8182C19.875 38.5455 19.5 39.0909 18.75 39.4545C18.1875 39.8182 17.4375 40 16.6875 40Z" fill="#ABB910"/>
</g>
<defs>
<clipPath id="clip0_3079_23925">
<rect width="60" height="40" fill="white"/>
</clipPath>
</defs>
</svg>
