<svg width="25" height="25" viewBox="0 0 25 25" fill="none" xmlns="http://www.w3.org/2000/svg">
<g clip-path="url(#clip0_2777_21337)">
<path d="M11.8844 24.3438C9.77362 24.4044 7.78014 24.3438 5.84528 23.7983C3.38274 23.071 2.67916 20.2831 4.43812 18.2831C5.55212 17.0104 7.07655 16.3438 8.65961 15.8589C10.2427 15.3741 10.4772 14.8286 9.71499 13.2528C9.24593 12.2831 8.42509 11.3134 8.24919 10.4044C7.83877 7.49527 7.19382 4.40436 9.12867 1.73769C9.77362 0.767992 10.7117 0.34375 11.8844 0.34375C13.4674 0.34375 14.8746 1.13163 16.0472 1.98011C17.2785 2.8286 17.044 4.52557 17.1612 5.98011C17.3958 8.76799 16.5163 11.1922 15.1678 13.4953C14.4055 14.8892 14.5814 15.1922 16.1059 15.6771C17.5717 16.1013 18.9202 16.7074 20.0928 17.6771C21.3241 18.7074 21.5586 20.1013 21.3827 21.5559C21.2655 22.465 20.5619 22.768 19.9169 23.0104C17.3371 24.1619 14.5814 24.465 11.8844 24.3438Z" fill="#9AAB22"/>
</g>
<defs>
<clipPath id="clip0_2777_21337">
<rect width="24" height="24" fill="white" transform="translate(0.5 0.34375)"/>
</clipPath>
</defs>
</svg>
