<svg width="25" height="25" viewBox="0 0 25 25" fill="none" xmlns="http://www.w3.org/2000/svg">
<g clip-path="url(#clip0_2777_21326)">
<path d="M24.5 6.1189C24.5 5.83487 24.4527 5.50351 24.216 5.40884C23.5533 5.12482 23.6479 4.55677 23.6479 4.03606C23.6479 3.326 23.6479 2.61594 23.6479 1.90588C23.6479 0.485762 23.5059 0.34375 22.0858 0.34375C18.9142 0.34375 15.7426 0.34375 12.571 0.34375C9.30473 0.34375 6.0858 0.34375 2.81953 0.34375C1.92012 0.34375 1.49408 0.627774 1.39941 1.62186C1.30473 3.04197 2.01479 4.65144 0.547336 5.83487C0.642011 8.05973 0.0739634 10.2846 1.06805 12.4148C1.35207 12.9355 1.44674 13.4088 1.44674 13.9769C1.44674 16.9591 1.44674 19.9414 1.44674 22.8763C1.44674 23.7284 1.68343 24.2964 2.67751 24.2964C5.04438 24.2964 7.45858 24.2491 9.82544 24.2964C10.4882 24.2964 10.6302 24.0597 10.5828 23.4917C10.5355 22.3082 10.6302 21.1248 10.5355 19.9887C10.4408 18.8526 11.1982 18.9 11.7663 19.0893C12.6183 19.3733 14.0858 18.0952 14.3225 19.9414C14.4645 21.0775 14.3698 22.2136 14.3225 23.3497C14.2751 24.1071 14.5118 24.3438 15.2692 24.3438C17.4941 24.2964 19.7189 24.3438 21.9438 24.3438C23.3166 24.3438 23.4586 24.2017 23.4586 22.7816C23.4586 19.894 23.4586 17.0065 23.4586 14.1189C23.4586 13.7402 23.4112 13.2668 23.5533 12.9828C24.9734 10.758 24.358 8.39109 24.5 6.1189ZM20.7604 22.1662C19.5296 22.1189 18.3462 22.1189 17.1154 22.1662C16.5 22.1662 16.2633 21.9769 16.3107 21.3615C16.358 20.3201 16.3107 19.2313 16.3107 18.1899C16.3107 17.4325 15.9793 17.1011 15.2692 17.1011C13.4231 17.1011 11.5769 17.1011 9.77811 17.1011C9.06805 17.1011 8.73668 17.4325 8.73668 18.1899C8.78402 19.184 8.73668 20.2254 8.73668 21.2195C8.78402 21.8349 8.59467 22.1662 7.88461 22.1189C6.70118 22.0716 5.51775 22.0716 4.38166 22.1189C3.86095 22.1189 3.57692 22.0716 3.57692 21.4562C3.62426 19.326 3.57692 17.1485 3.57692 14.9236C5.47041 15.5864 7.22189 15.6337 8.92603 14.5449C9.30473 14.2609 9.58876 14.5923 9.87278 14.7343C11.5769 15.6337 13.3284 15.681 15.0325 14.7816C15.6006 14.4976 15.932 14.4503 16.5 14.7816C18.0621 15.681 19.7189 15.539 21.4231 14.971C21.4231 17.1958 21.4231 19.326 21.4231 21.5035C21.4704 22.0242 21.2811 22.1662 20.7604 22.1662ZM20.4763 5.17215C15.1746 5.12482 9.87278 5.12482 4.57101 5.17215C3.24556 5.17215 3.6716 4.32008 3.62426 3.7047C3.57692 2.99464 3.52959 2.47393 4.57101 2.47393C7.26923 2.5686 9.96745 2.52126 12.6657 2.52126C15.2692 2.52126 17.9201 2.5686 20.5237 2.47393C21.7544 2.42659 21.4704 3.18399 21.4704 3.84671C21.4231 4.50943 21.6598 5.17215 20.4763 5.17215Z" fill="#9AAB22"/>
</g>
<defs>
<clipPath id="clip0_2777_21326">
<rect width="24" height="24" fill="white" transform="translate(0.5 0.34375)"/>
</clipPath>
</defs>
</svg>
