<svg width="20" height="20" viewBox="0 0 20 20" fill="none" xmlns="http://www.w3.org/2000/svg">
<path d="M6.98375 13.2148C8.98992 13.2148 10.9833 13.2148 12.9894 13.2148C13.2907 11.0741 13.2843 8.94613 12.9894 6.79254C10.9897 6.79254 8.99632 6.79254 6.98375 6.79254C6.6825 8.92049 6.6825 11.0484 6.98375 13.2148Z" fill="#ABB910"/>
<path d="M14.5152 6.78503C14.81 8.93221 14.8164 11.0537 14.5088 13.2202C14.6113 13.2202 14.6818 13.2202 14.7588 13.2202C16.2394 13.2202 17.7199 13.2137 19.1941 13.2266C19.38 13.2266 19.4569 13.1689 19.5082 12.9958C20.1235 10.9832 20.1235 8.97066 19.4954 6.95809C19.4505 6.82349 19.4056 6.75939 19.2518 6.7658C17.7135 6.77221 16.1817 6.77221 14.6434 6.77221C14.6178 6.77221 14.5857 6.77862 14.5152 6.78503Z" fill="#ABB910"/>
<path d="M5.4585 13.197C5.16367 11.0627 5.16367 8.94112 5.46491 6.77472C5.36236 6.77472 5.29186 6.77472 5.21494 6.77472C3.73435 6.77472 2.25376 6.78112 0.773172 6.76831C0.587297 6.76831 0.510383 6.82599 0.459107 6.99905C-0.156203 9.01163 -0.156203 11.0242 0.478335 13.0304C0.516792 13.1457 0.54884 13.2227 0.696258 13.2227C2.25376 13.2162 3.81768 13.2162 5.37518 13.2162C5.388 13.2227 5.40082 13.2162 5.4585 13.197Z" fill="#ABB910"/>
<path d="M7.24707 14.7723C7.59959 16.2849 8.00339 17.7463 8.84303 19.0474C9.01609 19.3102 9.23401 19.5601 9.46475 19.7652C9.80445 20.0729 10.1762 20.0857 10.4967 19.7588C10.8428 19.3999 11.1633 19.0025 11.4068 18.5667C12.067 17.3873 12.4259 16.099 12.7208 14.7658C10.8941 14.7723 9.08659 14.7723 7.24707 14.7723Z" fill="#ABB910"/>
<path d="M7.2721 5.23438C9.07316 5.23438 10.8806 5.23438 12.7266 5.23438C12.6432 4.88826 12.5727 4.54856 12.4766 4.21527C12.1561 3.06797 11.778 1.9399 11.1178 0.933611C10.9768 0.715688 10.8037 0.504175 10.6178 0.32471C10.1756 -0.104726 9.76539 -0.117544 9.34877 0.33753C9.02188 0.696461 8.73987 1.10026 8.50913 1.52328C7.88741 2.67058 7.54129 3.91402 7.25928 5.17669C7.25928 5.19592 7.26569 5.20874 7.2721 5.23438Z" fill="#ABB910"/>
<path d="M12.5923 0.395214C13.4704 1.91426 13.9255 3.55509 14.2716 5.23438C15.7586 5.23438 17.2328 5.23438 18.7133 5.23438C18.2903 3.55509 14.6369 0.658003 12.5923 0.395214Z" fill="#ABB910"/>
<path d="M14.3098 14.7649C14.079 15.611 13.8932 16.4442 13.6175 17.2454C13.3484 18.0402 12.9894 18.8093 12.6689 19.5977C13.9444 19.2515 15.1238 18.6491 16.1813 17.8094C17.2389 16.9762 18.0978 15.9699 18.7515 14.7585C17.2325 14.7649 15.7583 14.7649 14.3098 14.7649Z" fill="#ABB910"/>
<path d="M1.25391 5.23438C2.72809 5.23438 4.20227 5.23438 5.69568 5.23438C6.0482 3.5615 6.49686 1.92708 7.36214 0.427262C5.72773 0.363167 1.83717 3.43331 1.25391 5.23438Z" fill="#ABB910"/>
<path d="M7.33639 19.5938C6.50316 18.0811 6.04808 16.4531 5.70197 14.7738C4.22138 14.7738 2.74079 14.7738 1.21533 14.7738C2.61901 17.2222 4.64441 18.8182 7.33639 19.5938Z" fill="#ABB910"/>
</svg>
