<svg width="300" height="300" viewBox="0 0 300 300" fill="none" xmlns="http://www.w3.org/2000/svg">
<path d="M27.1321 218.078C25.8253 216.482 26.5513 214.451 24.9541 213.435C22.9214 212.13 20.8887 212.71 19.2915 214.016C17.404 215.611 18.2752 217.642 19.4367 219.238C23.6474 225.476 29.4552 229.683 36.5697 231.859C48.7661 235.631 61.2528 236.211 73.8848 235.486C87.9687 234.761 100.455 229.973 110.474 219.673C115.41 214.741 121.363 211.84 128.623 212.13C133.56 212.275 137.48 214.451 140.674 217.933C144.014 221.559 145.901 225.911 147.063 230.699C147.789 233.455 147.208 235.776 145.756 238.242C140.82 246.076 133.415 250.573 125.284 254.345C104.956 263.775 83.6128 266.241 61.6884 262.469C39.4736 258.697 22.3406 247.092 12.177 226.637C7.67595 217.352 10.8702 209.664 19.7271 207.052C20.5983 206.762 21.6147 206.617 22.631 206.617C25.6801 206.617 28.7292 207.052 30.036 210.099C31.1975 213.435 29.1648 215.757 27.1321 218.078Z" fill="#E99249"/>
<path d="M219.807 259.715C193.236 259.715 175.813 253.767 159.696 243.612C148.662 236.649 150.114 225.913 154.615 216.919C158.535 209.085 168.553 206.764 178.136 210.681C182.056 212.277 185.686 214.453 188.59 217.499C202.964 232.877 220.533 236.358 240.57 231.571C251.895 228.815 262.785 224.898 273.384 220.256C275.997 219.095 278.03 217.064 279.482 214.743C280.644 212.857 280.644 210.971 278.611 209.666C276.723 208.36 274.691 208.215 272.948 209.666C271.642 210.681 271.932 211.987 272.803 213.147C273.094 213.583 273.529 214.308 272.948 214.743C272.513 215.033 271.787 215.033 271.206 214.888C268.447 214.018 266.56 212.567 266.415 209.375C266.269 203.718 270.625 199.366 277.014 198.785C283.838 198.205 288.629 201.687 289.355 207.635C290.081 214.163 287.468 219.53 283.838 224.318C266.124 248.254 242.022 259.424 219.807 259.715Z" fill="#E99249"/>
<path d="M101.909 86.9357C99.2957 85.63 96.6821 84.1793 93.9234 83.3089C91.3099 82.4385 90.0032 80.1174 88.1157 78.5216C87.3897 77.9413 87.0993 76.9259 87.6801 76.3456C88.406 75.6202 88.9868 76.6357 89.4224 76.9259C92.6167 79.392 96.2466 80.9878 99.8764 82.4385C101.328 83.0188 102.926 83.1639 104.523 82.7286C105.829 82.2934 106.991 81.5681 107.572 80.4075C108.153 78.9568 106.701 78.3766 105.829 77.6512C101.038 73.5893 97.2629 69.0921 95.6658 62.8541C95.5206 62.1288 95.085 61.5485 96.2466 60.8231C97.2629 62.4189 98.4245 63.8696 99.1505 65.4654C101.183 70.5428 105.539 73.009 109.895 75.6202C111.492 76.6357 113.234 76.4907 114.541 75.3301C115.993 74.0245 114.106 73.009 113.815 71.8484C113.234 69.9625 112.218 68.0766 111.492 66.1907C111.202 65.3203 110.766 64.1597 111.928 63.7245C112.944 63.4344 113.67 64.3048 114.106 65.3203C114.831 67.0611 115.703 68.802 116.574 70.5428C118.171 73.4442 120.349 75.185 123.834 75.7653C130.803 77.0709 137.772 78.6667 144.596 80.2625C150.695 81.7132 156.357 80.9878 161.003 76.3456C161.584 75.7653 162.165 74.7498 163.036 75.4752C163.907 76.2005 163.181 77.216 162.746 78.0864C162.165 79.247 159.697 80.1174 160.858 81.423C161.875 82.8737 163.907 81.8582 165.65 81.7132C168.263 81.5681 170.441 80.2625 172.764 79.392C173.635 79.1019 174.652 77.9413 175.233 79.1019C175.813 80.2625 174.652 80.9878 173.781 81.5681C170.586 83.7441 167.102 84.7596 163.327 85.3399C153.889 87.0807 144.596 84.9047 135.304 83.5991C130.077 82.8737 124.85 81.5681 119.478 81.8582C110.621 82.4385 109.169 85.0498 108.879 92.0131C108.588 100.137 109.459 108.116 114.251 115.224C114.831 116.095 115.267 116.965 114.686 117.835C113.96 118.996 112.654 118.561 111.637 118.271C109.169 117.545 108.153 115.514 107.281 113.338C105.829 109.421 104.813 105.359 104.087 101.152C103.797 98.9764 102.78 98.2511 100.457 98.106C94.359 97.8159 88.2609 97.3807 82.4531 94.6243C71.7086 89.4018 67.9336 79.8273 68.5144 68.947C69.8211 45.7359 88.1157 32.8247 111.782 37.3219C125.576 39.9331 138.208 45.7359 150.985 50.8133C158.1 53.5697 164.924 56.9063 172.909 55.3105C176.394 54.5852 179.734 53.8598 182.347 51.1035C184.525 48.6373 184.38 46.8965 181.331 45.4458C180.024 44.7204 178.427 44.4303 176.975 43.9951C175.958 43.7049 174.797 43.5599 174.652 42.2542C174.361 40.9486 175.087 39.9331 176.104 39.2078C181.04 35.7261 186.703 34.8557 192.656 35.2909C204.271 36.0163 215.161 45.3007 216.758 56.1809C218.21 65.4654 214.145 73.009 208.337 79.8273C206.014 82.5836 203.546 85.1948 200.932 87.8061C199.625 89.2568 199.19 90.9976 199.335 92.7384C199.625 94.6243 200.206 96.2201 202.529 94.6243C203.11 94.3342 203.691 93.899 204.126 94.3342C204.707 94.9145 204.562 95.6398 204.417 96.3652C203.836 99.1215 199.335 101.152 195.995 100.137C192.946 99.2666 192.075 97.0905 193.382 93.6089C195.415 88.2413 199.044 83.8892 202.384 79.392C206.885 73.2991 211.241 67.0611 210.37 58.6471C209.644 50.9584 204.126 44.2852 197.302 43.2697C195.85 42.9796 193.527 42.5444 194.398 45.1556C196.576 52.264 192.22 56.1809 187.429 59.5175C176.104 67.6414 164.053 66.6259 152.001 61.5485C141.693 57.0513 131.964 50.9584 121.22 46.7514C113.67 43.85 105.829 41.819 97.5533 43.7049C88.5512 45.881 82.5983 51.5387 80.2751 60.3879C77.952 69.0921 79.6944 76.7808 86.2281 83.3089C90.0032 87.0807 94.9398 87.661 99.8764 88.2413C100.602 88.2413 101.619 88.0962 101.909 86.9357Z" fill="#E99249"/>
<path d="M64.3038 130.022C60.8191 136.695 58.3508 143.223 54.8661 149.171C52.6882 153.088 49.4939 155.554 45.1381 156.57C43.9765 156.86 42.6697 157.15 41.7986 155.844C41.0726 154.684 42.089 153.813 42.8149 153.088C50.3651 143.078 55.4469 131.473 61.1095 120.447C61.6903 119.287 62.8518 117.836 61.6903 116.385C59.8027 113.919 61.8355 113.339 63.4326 113.194C68.95 112.323 73.3059 112.468 74.903 119.722C76.0646 124.944 76.9357 130.312 77.9521 135.68C78.0973 136.695 78.3877 137.711 78.8233 139.161C81.0012 137.275 81.4368 134.809 82.4531 132.778C84.9214 127.701 87.2446 122.478 90.1484 117.691C92.3264 114.064 97.4082 112.033 101.328 112.904C103.506 113.339 103.071 114.935 103.071 116.24C102.926 122.623 102.635 129.006 103.652 135.389C104.523 140.467 105.684 145.544 109.605 149.461C111.056 150.912 110.621 152.072 109.459 153.523C104.668 159.036 96.3918 157.005 92.9071 149.316C91.4552 146.125 91.1648 142.788 91.0196 139.451C90.8744 137.275 90.7292 135.244 90.584 132.343C88.1157 135.389 86.9542 138.291 85.5022 141.047C83.4695 145.109 81.582 149.316 79.404 153.233C76.7905 157.875 74.0318 158.02 71.1279 153.523C67.4981 148.01 66.6269 141.627 65.6105 135.389C65.4653 133.939 65.6105 132.198 64.3038 130.022Z" fill="#5D2F2E"/>
<path d="M207.175 170.931C208.918 168.32 209.353 165.273 210.66 162.517C213.564 155.989 220.824 154.103 226.051 159.035C233.02 165.708 234.182 174.268 232.584 183.407C231.713 188.049 229.826 192.401 226.486 195.883C221.404 201.25 216.758 201.976 210.079 198.494C209.353 201.976 209.789 205.457 209.644 208.794C209.498 211.26 209.353 213.872 209.063 216.338C208.772 218.079 208.047 219.529 206.159 220.11C204.126 220.69 202.674 219.529 201.513 218.224C200.642 217.208 199.77 216.048 199.335 214.887C195.269 200.09 192.656 185.003 195.995 169.625C196.141 169.335 196.141 168.9 196.286 168.61C197.447 164.403 199.625 162.082 202.239 162.517C206.014 163.097 206.159 166.289 206.304 169.19C206.304 169.915 206.449 170.496 207.175 170.931ZM220.098 184.277C220.243 179.78 218.936 175.863 217.194 172.092C216.903 171.366 216.468 170.351 215.451 170.496C214.435 170.496 214.29 171.656 214 172.382C211.967 177.894 210.805 183.407 210.224 189.21C210.079 191.386 210.079 193.127 212.402 193.852C214.725 194.577 216.758 193.562 217.92 191.531C219.662 189.21 220.243 186.598 220.098 184.277Z" fill="#5D2F2E"/>
<path d="M55.5916 172.961C58.6407 170.35 61.6898 168.319 65.3197 167.449C72.1438 165.998 76.0641 169.044 75.6285 175.863C75.4833 180.36 74.7573 184.712 74.4669 189.209C74.3217 191.675 74.4669 194.287 75.0477 196.753C75.4833 198.639 77.0804 200.815 74.6121 202.265C71.8534 204.006 68.8043 205.457 65.4649 203.571C62.7062 201.975 60.8186 199.944 60.8186 196.463C60.6734 192.691 60.8186 189.064 61.3994 185.292C61.5446 184.422 61.9802 183.261 60.9638 182.681C59.8023 181.956 58.9311 183.116 58.2051 183.696C53.8493 187.323 51.8165 192.691 49.0578 197.478C48.1867 199.074 47.0251 200.525 45.8636 201.83C43.976 203.716 41.9433 205.312 39.1846 204.151C36.2807 202.991 35.1191 200.525 35.1191 197.478C35.1191 191.24 37.0067 185.437 39.0394 179.635C40.6365 174.992 42.0885 170.35 45.5732 166.433C47.7511 163.967 50.2194 162.226 53.4137 163.532C56.4628 164.837 56.1724 168.029 55.7368 170.785C55.7368 171.511 55.7368 172.236 55.5916 172.961Z" fill="#5D2F2E"/>
<path d="M178.136 164.259C180.605 164.404 183.363 164.839 185.686 166.435C186.703 167.16 188.01 168.031 188.01 169.046C187.574 173.108 190.042 176.59 190.188 180.507C190.333 185.729 189.752 191.097 191.349 196.319C191.639 197.044 191.639 197.77 191.059 198.35C188.59 200.816 185.832 202.557 182.057 202.267C178.862 201.977 177.846 199.511 177.12 196.754C175.813 191.967 175.813 191.967 172.183 195.594C170.005 197.77 167.682 199.946 164.924 201.542C157.809 205.459 149.969 201.252 149.533 193.128C148.952 180.361 164.924 164.114 178.136 164.259ZM177.701 182.538C175.958 182.247 174.071 183.843 173.055 182.102C172.183 180.797 173.78 179.491 174.361 178.185C175.232 176.154 175.523 173.978 174.797 171.802C174.216 170.207 173.345 169.336 171.893 170.787C167.537 175.429 163.907 180.361 164.052 187.18C164.052 188.63 164.488 190.081 165.94 190.807C167.392 191.532 168.844 190.661 169.86 189.791C172.474 187.47 174.942 185.149 177.701 182.538Z" fill="#5D2F2E"/>
<path d="M126.736 184.422C130.221 181.52 132.98 179.199 135.884 177.168C137.771 175.863 139.659 174.557 141.691 173.687C145.321 172.091 148.37 172.961 149.677 175.863C151.274 179.489 150.258 182.246 146.483 183.987C143.143 185.437 139.513 186.598 136.029 187.903C135.158 188.194 134.141 188.339 133.415 189.499C139.223 192.401 141.691 198.639 146.918 202.12C147.79 202.7 148.37 203.426 147.935 204.586C145.757 210.824 138.352 212.42 133.56 207.923C130.221 204.731 128.479 200.815 126.591 196.463C124.704 198.058 124.268 200.089 123.252 201.83C121.074 205.602 117.299 206.037 114.395 202.7C112.798 200.96 112.072 198.784 111.926 196.463C111.781 185.292 115.121 175.137 120.493 165.563C120.638 165.418 120.783 165.127 120.929 164.982C123.106 162.806 125.575 159.615 128.914 161.356C132.254 163.097 130.657 166.578 130.076 169.48C128.914 174.122 127.317 178.619 126.736 184.422Z" fill="#5D2F2E"/>
<path d="M185.396 99.1216C184.96 89.9822 187.283 81.4231 191.348 73.4443C191.929 72.4288 192.365 70.688 193.672 71.1232C195.124 71.5584 194.398 73.2993 194.107 74.3147C193.236 78.0865 192.22 81.7133 191.203 85.4851C189.025 94.6245 190.477 103.619 193.236 112.468C193.381 113.193 193.672 113.774 193.962 114.499C194.833 117.836 193.817 118.851 190.623 117.981C186.702 116.82 182.782 115.514 178.862 114.354C164.778 110.002 150.404 109.276 136.029 111.888C131.964 112.613 127.898 113.484 125.14 116.965C123.833 118.706 122.381 118.271 121.074 117.11C120.203 116.385 119.622 115.514 118.896 114.789C113.814 109.422 114.686 106.085 121.945 104.344C131.673 102.023 141.547 101.878 151.42 102.313C161.584 102.748 171.457 104.634 181.33 107.246C185.396 108.261 185.541 108.116 185.396 104.054C185.396 102.458 185.396 100.862 185.396 99.1216Z" fill="#E99249"/>
<path d="M92.1796 195.013C94.6479 196.754 96.5354 196.319 98.423 195.303C100.601 193.998 102.634 192.547 104.812 191.241C106.263 190.371 108.006 190.371 109.022 191.822C110.184 193.272 108.877 194.288 108.006 195.158C103.214 199.655 97.8422 203.282 91.3084 204.733C84.0487 206.329 77.8053 201.832 78.0957 194.578C78.3861 184.278 85.3554 171.077 97.4066 167.45C100.891 166.435 104.376 165.854 107.28 168.756C110.039 171.657 110.329 175.139 109.458 178.911C107.425 186.454 100.746 192.982 92.1796 195.013ZM92.0344 192.112C96.971 188.195 100.31 180.216 99.5845 174.849C99.4393 173.978 99.4393 173.108 98.423 172.963C97.4066 172.818 96.8258 173.543 96.5354 174.413C96.245 176.299 94.7931 177.605 94.2123 179.201C92.6152 183.263 90.8728 187.325 92.0344 192.112Z" fill="#5D2F2E"/>
<path d="M137.917 152.364C132.835 153.09 130.367 150.914 130.512 145.981C130.802 135.536 144.741 124.801 154.179 126.397C158.389 127.122 159.841 129.008 158.97 133.07C158.68 134.521 158.099 135.826 159.551 136.987C159.841 137.132 159.841 137.712 159.841 138.002C161.729 146.416 153.743 160.778 145.467 163.68C142.418 164.84 139.369 165.566 137.046 162.374C135.303 159.908 136.029 157.006 139.078 153.815C140.385 152.944 141.547 151.929 142.853 151.059C144.015 151.059 145.177 149.463 146.193 150.478C147.209 151.494 145.757 152.654 145.467 153.67C144.886 155.701 144.16 157.587 145.177 160.488C147.935 155.556 149.387 151.059 149.532 145.546C146.919 147.287 144.886 148.592 142.853 149.898C141.111 150.623 139.514 151.494 137.917 152.364ZM141.547 142.354C141.402 144.385 142.127 145.256 144.015 144.095C145.612 143.08 147.064 141.774 148.661 140.614C149.097 140.323 149.823 139.453 149.242 139.163C147.064 138.002 148.806 136.987 149.242 135.971C149.968 134.521 150.404 133.07 150.694 131.619C150.839 131.039 150.984 130.314 150.258 130.169C149.823 130.024 149.242 130.169 148.952 130.459C145.322 133.65 142.418 137.277 141.547 142.354Z" fill="#5D2F2E"/>
<path d="M170.73 147.429C168.988 151.056 167.681 154.247 166.229 157.439C165.503 158.889 164.632 160.63 162.454 160.195C160.421 159.76 159.695 157.874 159.695 155.988C159.695 148.009 162.309 140.611 165.068 133.357C166.084 130.601 167.245 127.699 169.278 125.378C170.585 123.783 171.892 122.042 174.36 122.767C176.828 123.638 175.812 125.669 175.957 127.409C175.957 127.845 176.102 128.28 176.248 128.86C177.99 127.99 178.716 126.394 179.877 125.233C183.652 121.316 189.17 122.477 191.348 127.554C194.542 135.388 189.025 148.154 180.313 150.766C176.683 151.636 173.489 151.056 170.73 147.429ZM181.91 134.228C181.91 133.792 182.201 132.197 181.039 131.616C179.877 131.181 179.297 132.632 178.716 133.357C176.973 135.823 175.231 138.144 173.634 140.756C172.763 142.206 171.892 143.947 173.634 145.253C175.522 146.559 177.409 145.688 178.716 144.092C181.039 141.481 181.91 138.29 181.91 134.228Z" fill="#5D2F2E"/>
<path d="M261.914 174.414C261.333 182.103 259.01 189.066 251.895 193.273C247.975 195.594 243.91 196.319 239.844 194.143C235.634 191.967 234.472 187.76 234.617 183.408C235.053 173.689 239.118 165.275 244.491 157.441C245.362 156.135 246.233 154.83 247.249 153.669C248.556 152.218 250.153 151.203 252.041 152.508C253.783 153.669 253.347 155.41 252.476 157.006C248.992 163.969 247.104 171.368 246.233 179.056C245.942 181.958 245.797 184.859 247.104 187.615C248.12 189.791 249.718 190.081 250.879 188.051C252.041 186.02 254.799 183.553 250.444 181.813C250.008 181.667 249.718 181.087 249.572 180.652C248.12 177.46 252.041 168.611 255.38 167.306C258.574 166.145 260.317 167.015 261.333 170.062C261.769 171.658 262.059 172.963 261.914 174.414Z" fill="#5D2F2E"/>
<path d="M210.079 143.802C208.482 146.124 206.885 148.154 204.707 149.46C199.189 152.942 191.784 149.895 192.075 142.932C192.51 134.373 196.721 127.555 201.803 121.026C202.529 120.156 203.4 119.576 204.561 120.446C205.723 121.317 205.723 122.332 204.997 123.638C202.819 128.135 201.512 132.777 200.641 137.709C200.206 139.74 200.06 141.771 200.351 143.802C200.496 144.818 200.932 145.978 202.093 146.414C203.109 146.849 203.545 145.978 203.981 145.253C204.561 144.238 205.287 142.787 204.126 141.916C200.641 139.015 203.255 136.549 204.416 133.938C205.578 131.471 207.03 130.311 210.66 130.601C213.273 130.891 216.177 127.845 218.21 125.379C219.662 123.638 220.823 120.156 223.437 121.752C225.615 123.057 223.582 125.814 222.711 127.845C221.114 131.471 220.097 135.388 219.226 139.16C218.645 141.481 218.791 143.657 219.807 145.833C220.533 147.429 220.678 149.315 218.791 150.331C217.048 151.346 215.306 150.911 213.709 149.605C211.966 148.3 211.531 145.833 210.079 143.802ZM211.386 140.031C211.531 140.031 211.676 140.031 211.821 140.031C212.402 138.29 212.983 136.694 213.564 134.953C213.854 134.228 214.435 133.357 213.418 132.777C213.128 132.487 212.547 132.632 212.112 132.777C211.24 133.067 211.531 133.938 211.531 134.518C211.386 136.259 211.386 138.145 211.386 140.031Z" fill="#5D2F2E"/>
<path d="M122.816 142.786C124.413 137.709 125.139 132.776 126.01 127.699C126.446 124.943 127.753 122.621 130.511 121.606C132.544 120.881 134.141 121.461 133.706 123.782C131.528 135.097 129.64 146.413 122.235 155.987C120.203 158.744 117.734 160.92 114.54 162.516C112.362 163.531 111.636 162.661 111.636 160.63C111.636 157.583 113.088 155.262 115.556 153.666C117.734 152.216 117.444 151.2 115.992 149.459C111.927 144.527 108.587 139.304 107.861 132.921C107.571 130.02 107.571 127.119 110.475 125.233C113.524 123.347 115.702 123.927 117.008 127.264C118.46 131.181 119.477 135.243 120.783 139.304C121.219 140.465 121.219 141.771 122.816 142.786Z" fill="#5D2F2E"/>
<path d="M240.568 142.061C237.665 144.092 235.922 147.138 233.309 149.46C231.712 150.765 230.405 152.506 228.082 151.926C225.613 151.2 225.323 148.879 225.033 146.703C224.016 141.046 224.887 135.388 226.049 129.875C226.194 129.005 226.775 128.134 227.065 127.264C228.227 124.798 230.405 123.637 233.018 124.217C235.777 124.943 236.067 127.409 235.777 129.73C235.341 133.212 234.18 136.403 234.761 140.32C236.939 137.274 239.117 134.372 241.294 131.326C241.294 131.181 241.44 131.181 241.44 131.036C243.182 128.86 244.634 125.523 247.828 126.248C250.732 126.974 249.861 130.455 250.296 132.777C250.877 135.823 251.168 138.869 252.184 141.916C252.91 143.947 254.072 146.413 250.732 147.574C246.957 149.024 243.618 148.154 242.166 145.543C241.73 144.382 241.73 143.077 240.568 142.061Z" fill="#5D2F2E"/>
<path d="M144.886 262.762C141.982 262.617 139.805 261.602 139.079 258.7C138.353 255.799 140.53 251.157 143.289 250.286C147.79 248.835 152.291 248.981 156.792 250.141C158.244 250.576 159.406 251.447 159.406 253.188C159.551 255.799 158.535 257.975 156.357 259.28C152.872 261.456 148.807 262.182 144.886 262.762Z" fill="#5D2F2E"/>
<path d="M230.551 117.256C230.696 115.515 230.696 114.209 231.858 113.484C233.019 112.759 234.181 113.484 235.052 114.209C237.811 116.24 240.424 118.271 241.876 121.463C242.457 122.623 242.892 124.074 241.731 125.235C240.714 126.25 239.408 125.67 238.391 125.09C234.907 123.204 231.567 121.028 230.551 117.256Z" fill="#5D2F2E"/>
<path d="M220.097 184.278C220.388 186.599 219.662 189.21 218.21 191.531C216.903 193.562 215.015 194.578 212.692 193.852C210.369 193.127 210.224 191.386 210.514 189.21C211.095 183.407 212.257 177.75 214.289 172.382C214.58 171.657 214.725 170.496 215.741 170.496C216.758 170.496 217.048 171.367 217.484 172.092C218.79 175.864 220.242 179.781 220.097 184.278Z" fill="#FEFDFD"/>
<path d="M177.699 182.536C174.941 185.147 172.472 187.613 169.859 189.934C168.843 190.95 167.391 191.675 165.939 190.95C164.487 190.224 164.051 188.774 164.051 187.323C163.906 180.505 167.536 175.572 171.892 170.93C173.198 169.48 174.215 170.35 174.796 171.946C175.521 174.122 175.231 176.153 174.36 178.329C173.779 179.634 172.327 180.795 173.053 182.246C174.07 183.841 175.812 182.101 177.699 182.536Z" fill="#FEFDFD"/>
<path d="M92.0349 192.11C90.8733 187.323 92.7609 183.261 94.2128 179.199C94.7936 177.603 96.2455 176.298 96.5359 174.412C96.6811 173.541 97.4071 172.961 98.4234 172.961C99.4398 173.106 99.585 173.976 99.585 174.847C100.311 180.214 96.8263 188.193 92.0349 192.11Z" fill="#FEFDFD"/>
<path d="M141.547 142.352C142.273 137.275 145.322 133.648 148.952 130.456C149.242 130.166 149.823 130.021 150.259 130.166C150.985 130.456 150.839 131.182 150.694 131.617C150.404 133.068 149.968 134.663 149.242 135.969C148.807 136.839 147.064 138 149.242 139.161C149.823 139.451 149.097 140.176 148.661 140.611C147.064 141.772 145.612 142.932 144.015 144.093C142.273 145.254 141.402 144.383 141.547 142.352Z" fill="#FEFDFD"/>
<path d="M142.854 150.912C142.854 150.476 142.854 150.041 142.854 149.606C144.886 148.3 146.774 146.995 149.532 145.254C149.387 150.767 147.935 155.264 145.177 160.196C144.16 157.295 144.886 155.409 145.467 153.378C145.757 152.362 147.209 151.202 146.193 150.186C145.177 149.461 144.015 150.912 142.854 150.912Z" fill="#FEFDFD"/>
<path d="M181.91 134.228C181.91 138.29 181.039 141.482 178.716 144.238C177.409 145.689 175.521 146.704 173.634 145.399C171.892 144.093 172.618 142.352 173.634 140.902C175.231 138.435 176.973 135.969 178.716 133.503C179.296 132.633 179.877 131.182 181.039 131.762C182.2 132.052 181.91 133.648 181.91 134.228Z" fill="#FEFDFD"/>
</svg>
