<svg width="200" height="124" viewBox="0 0 200 124" fill="none" xmlns="http://www.w3.org/2000/svg">
<g clip-path="url(#clip0_2734_20536)">
<path d="M23.4516 0C25.1935 0.452083 27 0.742708 28.6774 1.35625C39.8064 5.52188 45.1613 17.4375 41.1613 29.0948C39 35.3917 35.2581 40.7844 30.9355 45.7573C28.8387 48.1792 26.5484 50.4719 24.2581 52.7323C22.3226 54.6375 20.2581 54.6375 18.2903 52.7323C11.9677 46.6938 6.29031 40.1063 2.58063 32.0333C-0.451623 25.4135 -1.09678 18.6969 2.2258 12.0125C5.58063 5.32813 11.0322 1.35625 18.4193 0.19375C18.6451 0.161458 18.871 0.0645833 19.0968 0C20.5484 0 22 0 23.4516 0ZM21.2258 44.8208C21.4193 44.724 21.5161 44.6594 21.6129 44.5948C25.2581 40.849 28.5161 36.8448 31.1613 32.3563C33 29.2563 34.5806 25.9948 34.7742 22.3458C35.0645 16.5656 32.6129 12.0448 27.4839 9.33229C22.4516 6.68438 17.4516 7.16875 13 10.7208C8.48386 14.2729 6.93547 19.0521 8.19354 24.7031C9.06451 28.6104 11.0645 32.0333 13.2903 35.2948C15.6452 38.7177 18.2903 41.8823 21.2258 44.8208Z" fill="#FF8C00"/>
<path d="M57.1613 114.087C70.4516 114.087 135.355 114.087 148.613 114.055C149.226 114.055 149.935 113.797 150.419 113.409C152.806 111.569 156.226 111.762 158.323 113.991C160.387 116.186 160.387 119.706 158.29 121.902C156.161 124.13 152.774 124.324 150.387 122.451C149.903 122.063 149.194 121.837 148.581 121.837C122.129 121.805 44.0645 121.805 17.6129 121.805C9.19354 121.837 2.25806 116.251 0.419346 108.049C-1.90323 97.5218 6.2258 87.1239 17 87.0593C29.9677 86.9624 42.9355 87.027 55.871 87.027C60.6452 87.027 64.5161 83.9916 65.4516 79.5676C66.7419 73.5937 62.3548 67.9749 56.2258 67.9426C47.3226 67.8781 38.4193 67.9104 29.5484 67.9104C28.8387 67.9104 28.0968 67.9427 27.3871 67.9104C26.2903 67.8135 25.4516 68.1041 24.5161 68.7822C22.1613 70.5906 18.7419 70.0416 16.8064 67.7489C14.9355 65.5531 15.0323 62.227 17 60.1281C19.0323 57.9322 22.4516 57.6093 24.7742 59.4822C25.4516 60.0312 26.129 60.2249 26.9677 60.1926C36.7097 60.1604 46.4516 60.1604 56.1935 60.1926C65.8064 60.2249 73.4839 67.9427 73.4516 77.501C73.4516 86.9947 65.7742 94.7124 56.2581 94.7447C43.3871 94.777 30.4839 94.7447 17.6129 94.777C12.871 94.777 8.90322 97.9416 7.99999 102.366C6.74193 108.469 11.1935 114.055 17.4193 114.087C25.5484 114.152 33.6774 114.087 41.8064 114.087C46.9355 114.087 52.0323 114.087 57.1613 114.087Z" fill="#595959"/>
<path d="M21.3226 15.4688C24.5484 15.501 27.129 18.149 27.0645 21.3781C27.0323 24.5427 24.3871 27.0938 21.2258 27.0615C18.0323 27.0292 15.4194 24.3812 15.4839 21.1521C15.5484 18.0198 18.1613 15.4688 21.3226 15.4688Z" fill="#FF8C00"/>
</g>
<g clip-path="url(#clip1_2734_20536)">
<path d="M108.625 95.3563C109.337 95.3326 110.049 95.285 110.738 95.285C114.701 95.285 118.665 95.285 122.652 95.2613C123.245 95.2613 123.506 95.4514 123.767 95.9978C125.714 100.108 128.989 102.365 133.522 102.341C138.055 102.341 141.33 100.084 143.253 95.974C143.514 95.4038 143.799 95.2613 144.368 95.2613C151.156 95.285 157.92 95.285 164.708 95.2613C165.325 95.2613 165.61 95.4514 165.895 96.0215C167.841 100.084 171.092 102.317 175.578 102.341C180.111 102.341 183.386 100.108 185.333 95.9978C185.617 95.4038 185.926 95.2375 186.519 95.2375C188.655 95.2613 190.768 95.3088 192.809 94.5011C196.796 92.9093 199.573 89.0369 199.573 84.7368C199.597 69.0569 199.597 53.3771 199.573 37.6972C199.573 31.8766 194.874 27.1727 188.964 27.1489C175.198 27.1014 161.433 27.1014 147.667 27.1489C141.639 27.1727 137.082 31.9241 137.058 37.9823C137.058 40.263 137.058 42.5437 137.058 44.9432C136.441 44.9432 135.895 44.9194 135.35 44.9432C132.834 45.0145 130.318 44.9194 127.826 45.2283C125.334 45.5134 123.245 46.8675 121.726 48.8632C118.166 53.4958 114.678 58.1523 111.189 62.8325C109.86 64.6143 109.124 66.6812 108.815 68.8906C108.792 69.0569 108.72 69.2232 108.649 69.3895C108.625 78.061 108.625 86.7086 108.625 95.3563ZM144.155 88.1578C144.155 87.6827 144.155 87.3501 144.155 86.9937C144.155 70.8387 144.155 54.6837 144.155 38.5287C144.155 35.559 145.46 34.2524 148.427 34.2524C156.283 34.2524 164.115 34.2524 171.971 34.2524C177.5 34.2524 183.054 34.2524 188.584 34.2524C191.005 34.2524 192.476 35.7016 192.476 38.006C192.476 53.4721 192.476 68.9381 192.476 84.4279C192.476 86.6374 191.029 88.0866 188.821 88.1578C188.062 88.1816 187.279 88.1341 186.519 88.1816C185.902 88.2291 185.617 88.0153 185.333 87.4214C183.386 83.3826 180.182 81.1257 175.649 81.1019C171.14 81.0781 167.888 83.2876 165.918 87.3263C165.61 87.944 165.325 88.1816 164.613 88.1816C158.134 88.1578 151.655 88.1578 145.152 88.1578C144.867 88.1578 144.534 88.1578 144.155 88.1578ZM137.011 81.5771C136.868 81.5533 136.797 81.5771 136.75 81.5533C130.959 80.0566 126.26 82.2423 123.625 87.6352C123.506 87.8965 123.055 88.1341 122.771 88.1341C120.753 88.1816 118.736 88.1578 116.742 88.1578C116.434 88.1578 116.125 88.1578 115.793 88.1578C115.793 82.8837 115.793 77.7284 115.793 72.573C122.889 72.573 129.962 72.573 137.035 72.573C137.011 75.614 137.011 78.5836 137.011 81.5771ZM137.011 65.327C130.721 65.327 124.527 65.327 118.166 65.327C121.275 61.217 124.266 57.2257 127.328 53.282C127.778 52.7118 128.657 52.2129 129.345 52.1654C131.884 52.0229 134.424 52.1179 137.011 52.1179C137.011 56.513 137.011 60.8844 137.011 65.327ZM175.483 88.1816C177.453 88.1103 179.091 89.6546 179.162 91.6027C179.233 93.5508 177.714 95.19 175.744 95.285C173.822 95.3801 172.137 93.8121 172.065 91.864C171.994 89.8921 173.513 88.2529 175.483 88.1816ZM133.498 88.1816C135.468 88.1816 137.058 89.7496 137.058 91.7214C137.058 93.6695 135.468 95.285 133.522 95.285C131.576 95.285 129.962 93.6933 129.962 91.7452C129.938 89.7733 131.528 88.1816 133.498 88.1816Z" fill="#FF8C00"/>
</g>
<defs>
<clipPath id="clip0_2734_20536">
<rect width="160" height="124" fill="white"/>
</clipPath>
<clipPath id="clip1_2734_20536">
<rect width="93.2258" height="75.2396" fill="white" transform="matrix(-1 0 0 1 200 27.125)"/>
</clipPath>
</defs>
</svg>
