<?xml version="1.0" encoding="UTF-8"?> <!-- Generator: Adobe Illustrator 24.1.0, SVG Export Plug-In . SVG Version: 6.00 Build 0) --> <svg xmlns="http://www.w3.org/2000/svg" xmlns:xlink="http://www.w3.org/1999/xlink" id="Layer_1" x="0px" y="0px" viewBox="0 0 1069.7 1067.7" style="enable-background:new 0 0 1069.7 1067.7;" xml:space="preserve"> <style type="text/css"> .st0{fill:#ED1C24;} .st1{fill:#FFFFFF;} </style> <circle class="st0" cx="535.9" cy="533.9" r="534.4"></circle> <path class="st1" d="M868.6,522.7c-3.4,4.5-10.1,9-7.1,15c4.2,2.6,9.2-0.3,12.9-2.4c8.6-6.2,15.6-15.2,16.2-25.4l-0.9,0 C882.3,513.3,875.1,517.2,868.6,522.7 M792.8,538.8c0.2,2.2,2.7,3.4,4.9,2.9c12-3.4,20.4-14.5,23.1-25.9c0,0,0.5-0.9-0.2-1.8 c-0.7-0.9-2.3-0.5-2.3-0.5C807.6,517.9,795.5,526,792.8,538.8z M710.5,462.6c18.5-14.6,39.5-32.9,51.7-52.9c3.7-6,8-16.9,7.8-20.1 c-0.1-3.2-0.2-3-0.9-4.2c-0.8-0.7-1.5-0.9-3.9,0c-2.8,1-9,6.5-13.3,10.4C734.2,416.4,721.4,439.1,710.5,462.6z M437.7,561.7 c-3.2,7.2-9.1,15.9-3.7,23.9c2.5,1.4,5.5,0.3,7.8-0.2c14.8-7,26.7-22.4,34-36.2c2.3-5.1,6.2-12.7,1-17.8c-5.7-2.4-11.4,0.9-16,4.2 C451,542.2,443.5,552.4,437.7,561.7z M280.2,578.9c27.1-7.2,54.1-11.7,82.7-14.6l6.1-8.5c12-23,26.8-51.9,13.4-78.6 c-4.4-9.7-14.6-14.2-23-17.5L280.2,578.9z M168,660.5c0.8,4.3,5.5,6,9.1,7c31.8,6,80.5-13.4,114.8-34.8 c21.8-14.8,45.5-34.1,62.2-55.5c-30,4.7-60.1,12.3-87.9,22.2l-23,34.1c-4.3,6.5-10,15.6-18.9,14.6c-2.8-0.8-3.9-3.3-2.8-6.3 l18.2-33.4c-19.1,6.4-37.5,14.5-54.2,26.9C177.3,641.8,167.3,649.2,168,660.5z M130.1,445.1c65.8-24.3,139.4-40,215.4-29l8.3-13.4 c15.6-2.5,31.6-4.6,47.2-6.2l-21.1,31.9c20.5,8.8,37.7,30.2,39.4,52.7c0.1,30.3-13.7,55.8-29.6,79.4l22-2.8 c15.5-24.7,58.2-56.9,76.9-32.3c0,0-2.8-4.1,0,0l6.4-8.7l28.6-3.8l-36.3,61.5c-0.3,1,0.1,2.6,1.8,2.4c8.6-3.8,16.3-10,23.1-16.3 c17.4-16,32.5-33.6,43.8-52.6l27.4-3L568,531.7c12.8-10,25.7-24.9,41.1-31.3c4.1-1.8,9.2-0.4,12.9,1.4c3.6,3,4.8,6.9,4.6,11.4 c-5.6,17.3-17.7,31.8-26.5,47.8c-0.4,1.3-0.8,2.6,1,3.1c21.8-11.1,43.2-32.1,58.8-52l-25.1,3l9.2-17.3l23.6-2.3 c29.1-45.8,57.8-96.3,105.1-129.7c6.1-2.8,14.4-8.3,20.7-2c5.5,9.7-0.8,20.7-4.6,29.6c-19.9,36.7-58.9,66.5-91.6,92.4l-2.7,6.3 l55.7-6.2c1.1,0.5,0.7,2.6,0.3,3.5c-18.2,15.2-37.7,32.6-40.1,55.9c-0.8,4,2,6.3,5,8c13.2,3.2,22.1-10,30.6-18.7 c4.9-6.3,11.7-13.2,13.9-20.7c-4.7-2.1-7.6-8.2-7.3-12.3c0.8-10.5,5.6-19.7,14.3-26.1c3-1.9,7.3-2.7,10.9-1.1c2.6,1.8,5.7,4.4,6,7.6 c1.3,9.2-2.5,17-5.9,24.7c18.4-2.9,33.7-15.4,48.3-28.4l1.9-2.8c0.6-12.5,2.9-24.6,12.9-32.8c5-3.4,11.5-8.2,17.6-3.9 c4.5,2.1,3.1,11.9,3.1,11.9c-2.5,12.3-25.4,20.7-21.1,38.5c0.6,2.4-1.2,5.4,1.2,6.6c18.6-4.8,36.6-13.5,53.8-22.1 c1.8-5.2,0.1-10.9,1.7-16.1c2.6-9.5,8.6-19.7,18.4-24c3.1-0.8,6.6-1.1,9.4,0.5c3.6,3.1,5.1,7.7,3.4,12.3 c-1.8,11.9-11.9,20.7-20.3,29.3c-2.3,20.2,5.5,40.5-2.4,58.7c-8.1,16.4-25.4,24.7-42.7,25.4c-6.9-0.6-14.7-3-17.1-10.4 c-4.1-13.9,5.9-25.8,16.6-34.2c9.4-7.7,19.9-12.3,30.6-16.9c4-3.4,3.7-10.3,3-14.9c-9.6,4.7-20.9,9.8-31.4,14.1l-23.4,9.1 c-0.3,19.7-5.5,40-22.9,50.6c-11.1,5.1-27.3,11.2-38.6,2.3c-5.2-4.4-5.6-11.8-4.2-17.6c6.3-23.4,31.7-30.8,49.9-40.1 c2.8-3.6,1.8-8.5,1.1-12.3c-15.8,13.5-35.5,25.4-55.9,27.2c-14.8,22.7-38,55.5-68.9,53.3c-5.5,0.1-9.8-2.6-13.7-5.8 c-8.6-9.9-3.9-24.8,1.2-34.8c5.2-10.5,15.1-18.7,22.9-27.4c-8.8,0.5-25.7,3.1-25.7,3.1l-45.4,84.5l12.9-0.8l72.9-7.3l88.3-5.8 l99-3.8c7.7-0.5,15.8-0.1,23.8-0.2l-17.7,15.6c8,5.6,16.4,11.8,25,16.6l-0.3,0.6l-71.3-2.5l-88.9,0.8l-115.6,4.9 c-13.1,1.4-26.6,1.9-39.9,2.7l-25.2,45.7l-30.9,2.2l25.9-44.4l0.7-1.1l-57.5,3.5l-105.3,10.3l-85.8,11.1c2.6-3.3,3.1-9.8,8.9-9.6 l112.9-19.2l68.8-9.1l69.5-6.9l22.3-38.5c-1.1-1.1-2.2,0.1-3.1,0.9c-14.7,12.5-29.8,24.2-48.3,27.3c-3.6-0.3-6.7-1.7-9.4-3.9 c-8.2-14.2,8.4-30.3,12.9-38.6c0,0,5-7.7,8.2-15c0,0,0.4-0.6-0.1-1.2c-0.6-0.7-1.4-0.2-1.4-0.2c-21.8,17.9-43.5,40-58.5,62.9 c-8.3,0.5-16.5,1.2-24.5,2.3c2.9-7.7,7.1-16,11.5-23.4c-13.6,10.3-26.7,21.9-42,27.9c-4.2,1.7-13,2.6-18.5-8.6 c-15,10.8-32,24.4-51.3,16.8c-5-3.8-6.7-9.5-7.2-15.4c-0.2-5.6,1.2-10.9,3.2-15.5l0.2,0l-23.8,2.3 c-51.9,56.3-114.6,99.1-184.9,115.1c-19.6,3.9-42.7,6.8-62.8,1.7c-6.8-1.9-13.8-7.9-15.2-15.2c-0.5-18,16.2-31.8,30.2-41.5 c31.8-20.7,66.4-34,102.1-44.9l5.8-9.5l69.9-127.4h0.4c-85.4-9.3-161.3,22-229.6,60.8l-6,3L130.1,445.1z"></path> </svg> 