<?xml version="1.0" encoding="UTF-8"?> <!-- Generator: Adobe Illustrator 24.1.0, SVG Export Plug-In . SVG Version: 6.00 Build 0) --> <svg xmlns="http://www.w3.org/2000/svg" xmlns:xlink="http://www.w3.org/1999/xlink" id="Layer_1" x="0px" y="0px" viewBox="0 0 1068.7 1068.7" style="enable-background:new 0 0 1068.7 1068.7;" xml:space="preserve"> <style type="text/css"> .st0{fill:#AABD00;} .st1{fill:#FFFFFF;} </style> <circle class="st0" cx="534.4" cy="534.4" r="534.4"></circle> <g> <g> <path class="st1" d="M787.1,440.8c-1.6-4-5.5-6.6-9.9-6.6c-414,0-458.7,171.6-458.7,245.3c0,26.5,5.9,51.3,17.5,73.7 c1.8,3.5,5.3,5.7,9.2,5.7c3.7-0.1,7.5-1.9,9.5-5.3c27.9-48.3,107.1-167.5,237.8-230.8c5.4-2.6,11.8-0.4,14.3,4.9 c2.6,5.3,0.3,11.7-4.9,14.3c-9.9,4.8-19.3,10-28.6,15.4c-3.5,2.1-7,4.3-10.5,6.4c-5.2,3.2-10.4,6.5-15.4,10 c-5,3.4-10,6.8-14.8,10.4c-1.5,1.1-3,2.2-4.5,3.4C398.1,684.4,318.6,839,318.6,892.8c0,5.9,4.8,10.7,10.7,10.7s10.7-4.8,10.7-10.7 c0-17.2,11.7-52.1,33.9-93.6c32.2,26.3,75.5,40.3,126.1,40.3c137,0,165.7-130.3,181.1-200.4c20.7-94.3,66.4-149.3,103.8-186.8 C787.8,449.3,788.7,444.8,787.1,440.8z"></path> </g> </g> <g> <path class="st1" d="M340.9,294.1v41.1h-22.7V228.1h31.2c14.5,0,25.3,2.6,32.3,7.9c7,5.3,10.5,13.3,10.5,24.1 c0,6.3-1.7,11.9-5.2,16.8c-3.5,4.9-8.4,8.8-14.7,11.5c16.1,24.1,26.6,39.6,31.5,46.7h-25.2L353,294.1H340.9z M340.9,275.7h7.3 c7.2,0,12.5-1.2,15.9-3.6c3.4-2.4,5.1-6.2,5.1-11.3c0-5.1-1.7-8.7-5.2-10.8c-3.5-2.1-8.9-3.2-16.2-3.2h-6.9V275.7z"></path> <path class="st1" d="M487,313h-12.9v22.2H452V313h-45.7v-15.7l46.9-69.1h20.9v67.3H487V313z M452,295.4v-18.2c0-3,0.1-7.4,0.4-13.2 c0.2-5.8,0.4-9.1,0.6-10h-0.6c-1.8,4-4,7.9-6.5,11.7l-19.6,29.7H452z"></path> <path class="st1" d="M569.6,281.7c0,18.7-3.1,32.5-9.2,41.5c-6.1,9-15.6,13.5-28.3,13.5c-12.4,0-21.7-4.6-27.9-13.9 c-6.3-9.3-9.4-23-9.4-41.1c0-18.9,3.1-32.8,9.2-41.8c6.1-9,15.5-13.4,28.2-13.4c12.4,0,21.7,4.7,28,14.1 C566.4,249.9,569.6,263.6,569.6,281.7z M517.2,281.7c0,13.1,1.1,22.5,3.4,28.2c2.3,5.7,6.1,8.5,11.5,8.5c5.3,0,9.1-2.9,11.4-8.6 c2.3-5.8,3.5-15.1,3.5-28.1c0-13.1-1.2-22.6-3.6-28.3c-2.4-5.7-6.2-8.6-11.4-8.6c-5.3,0-9.1,2.9-11.4,8.6 C518.4,259.1,517.2,268.5,517.2,281.7z"></path> <path class="st1" d="M658.2,313h-12.9v22.2h-22.1V313h-45.7v-15.7l46.9-69.1h20.9v67.3h12.9V313z M623.2,295.4v-18.2 c0-3,0.1-7.4,0.4-13.2c0.2-5.8,0.4-9.1,0.6-10h-0.6c-1.8,4-4,7.9-6.5,11.7l-19.6,29.7H623.2z"></path> <path class="st1" d="M739.6,335.2l-7.8-25.5h-39l-7.8,25.5h-24.5l37.8-107.5h27.8l37.9,107.5H739.6z M726.4,290.7 c-7.2-23.1-11.2-36.2-12.1-39.2c-0.9-3-1.5-5.4-1.9-7.2c-1.6,6.3-6.2,21.7-13.8,46.4H726.4z"></path> </g> </svg> 