<svg width="40" height="40" fill="none" xmlns="http://www.w3.org/2000/svg"><path opacity=".99" d="M17.187 26.824a1.662 1.662 0 01-1.178-.489l-4.687-4.687a1.667 1.667 0 012.356-2.357l3.51 3.51 9.134-9.135a1.667 1.667 0 012.356 2.357L18.366 26.336a1.66 1.66 0 01-1.179.488z" fill="#fff"/><path d="M20 3.334a16.667 16.667 0 1016.666 16.667A16.685 16.685 0 0020 3.334zm8.678 12.689L18.365 26.335a1.666 1.666 0 01-2.356 0l-4.688-4.687a1.667 1.667 0 012.357-2.357l3.51 3.51 9.133-9.135a1.666 1.666 0 012.357 2.357z" fill="#ABB910"/></svg>