<svg width="20" height="11" fill="none" xmlns="http://www.w3.org/2000/svg"><path d="M11 8.833H1c-.265 0-.52.088-.707.244a.77.77 0 00-.293.59.77.77 0 00.293.589c.187.156.442.244.707.244h10c.265 0 .52-.088.707-.244a.77.77 0 00.293-.59.77.77 0 00-.293-.589A1.11 1.11 0 0011 8.833zM1 2.167h18c.265 0 .52-.088.707-.244a.77.77 0 00.293-.59.77.77 0 00-.293-.589A1.11 1.11 0 0019 .5H1C.735.5.48.588.293.744a.77.77 0 00-.293.59.77.77 0 00.293.589c.187.156.442.244.707.244zm18 2.5H1c-.265 0-.52.087-.707.244A.77.77 0 000 5.5a.77.77 0 00.293.59c.187.156.442.243.707.243h18c.265 0 .52-.087.707-.244A.77.77 0 0020 5.5a.77.77 0 00-.293-.59A1.11 1.11 0 0019 4.668z" fill="#fff"/></svg>