<svg width="37" height="36" fill="none" xmlns="http://www.w3.org/2000/svg"><path fill-rule="evenodd" clip-rule="evenodd" d="M12.915 6.684h9.814c.76 0 1.38-.583 1.38-1.305V1.81c0-.725-.62-1.309-1.38-1.309h-9.813c-.76 0-1.379.584-1.379 1.308V5.38c0 .722.619 1.305 1.378 1.305zm7.121 7.694v3.569c0 .724.619 1.312 1.378 1.312h10.425c.763 0 1.377-.588 1.377-1.312v-3.569c0-.725-.614-1.306-1.377-1.306H21.414c-.76 0-1.378.58-1.378 1.306zM3.1 28.926h7.779c.762 0 1.379-.584 1.379-1.308V24.05c0-.725-.617-1.31-1.38-1.31H3.1c-.758 0-1.377.585-1.377 1.31v3.567c0 .726.619 1.309 1.377 1.309z" fill="#ABB910"/><path fill-rule="evenodd" clip-rule="evenodd" d="M34.546 20.033H20.744a1.718 1.718 0 01-1.449-.808h-.276v8.835c0 .907.772 1.64 1.724 1.64h1.328v-4.492c0-.726.62-1.31 1.379-1.31h4.726c.762 0 1.378.584 1.378 1.31V29.7h4.991c.95 0 1.725-.733 1.725-1.64v-8.834h-.279c-.298.473-.82.807-1.445.807zM13.227 29.7H1.722a1.72 1.72 0 01-1.46-.817H0v4.98C0 34.77.773 35.5 1.722 35.5h11.504c.952 0 1.725-.731 1.725-1.637v-4.98h-.266a1.71 1.71 0 01-1.458.817z" fill="#ABB910"/><path fill-rule="evenodd" clip-rule="evenodd" d="M25.123 12.295V6.653h-.273a1.706 1.706 0 01-1.45.805H10.566a1.709 1.709 0 01-1.447-.805h-.274v15.312h6.415c.951 0 1.722.73 1.722 1.637v2.231h1.02V13.931c0-.904.77-1.636 1.721-1.636h5.4z" fill="#ABB910"/></svg>