<svg width="140" height="36" fill="none" xmlns="http://www.w3.org/2000/svg"><path fill-rule="evenodd" clip-rule="evenodd" d="M63.705 12.354v-1.612h2.967c.79 0 1.08.313 1.08.81 0 .565-.29.8-1.08.8h-2.967v.002zm0-5.28h2.584c.751 0 .962.24.962.734 0 .479-.21.733-.962.733h-2.584V7.073zm9.005 4.894c0-1.083-.83-2.072-2.163-2.415.717-.24 1.563-1.25 1.563-2.164 0-1.872-1.116-2.77-4.05-2.77h-9.199v10.303h8.389c3.609 0 5.46-.497 5.46-2.954zm-22.855 12.15l-2.048-5.358h-6.44v10.307h4.842v-3.872l-.62-4.048 2.896 7.92h2.739l2.89-7.92-.616 4.048v3.872h4.844V18.76H51.9l-2.045 5.358zm77.183-5.358v3.266h4.053v7.041h4.86v-7.04H140V18.76h-12.962zm-59.766 7.997c-1.14 0-1.776-.383-1.776-1.03 0-.64.562-.821 1.852-.933 1.294-.108 2.432-.072 3.414-.531.016.092.016.167.016.26 0 1.316-1.327 2.234-3.506 2.234zm8.367-3.264c0-1.818-.252-2.97-1.483-3.89-1.005-.73-2.93-1.117-5.805-1.117-4.88 0-7.232.843-7.444 3.484h4.995c.136-.806.926-1.027 2.487-1.027 1.411 0 2.158.4 2.158.937 0 .843-1.58.622-4.974.843-2.335.147-3.99.254-4.996 1.445-.365.44-.578 1.081-.578 1.851 0 2.257 1.775 3.378 5.325 3.378 2.449 0 4.144-.44 5.454-1.746.021.517.119.993.311 1.416h5.032v-.228c-.386-.27-.482-.691-.482-1.37v-3.976zm9.875 2.695c-1.468 0-2.487-.877-2.487-2.276 0-1.41 1.02-2.291 2.487-2.291 1.484 0 2.487.882 2.487 2.29-.001 1.4-1.003 2.276-2.487 2.276zm1.618-7.701c-1.716 0-3.123.406-4.3 1.246l-.038-.99h-4.61v13.66h4.842v-4.181c1.195.752 2.487 1.1 4.029 1.1 3.702 0 6.038-2.128 6.038-5.41s-2.336-5.425-5.961-5.425zm22.685.329h-6.458l-3.552 3.281v-3.281h-4.844v10.266h4.844v-2.325l2.14-1.67 2.584 3.98h5.787l-4.764-6.698 4.263-3.553zm5.827 3.963c.249-1.174 1.327-1.798 3.043-1.798 1.603 0 2.587.657 2.721 1.798h-5.764zm2.774-4.364c-4.993 0-7.716 2.052-7.716 5.497 0 3.446 2.723 5.502 7.716 5.502 4.497 0 7.156-1.225 7.868-3.482h-5.261c-.332.509-1.123.806-2.318.806-1.815 0-2.815-.662-2.815-1.759h10.493c.001-4.183-2.718-6.564-7.967-6.564zM82.082 7.48c1.484 0 2.487.879 2.487 2.289 0 1.393-1.004 2.276-2.487 2.276-1.466 0-2.492-.883-2.492-2.276 0-1.41 1.025-2.289 2.492-2.289zm-2.492 6.6c1.197.75 2.492 1.102 4.034 1.102 3.703 0 6.038-2.131 6.038-5.413 0-3.277-2.335-5.425-5.962-5.425-1.716 0-3.124.404-4.3 1.244l-.038-.988h-4.61v13.72h4.838v-4.242zM49.354 6.835c1.6 0 2.584.662 2.72 1.8h-5.768c.249-1.175 1.328-1.8 3.048-1.8zm-.27 8.435c4.493 0 7.154-1.23 7.867-3.482h-5.265c-.33.514-1.12.805-2.316.805-1.811 0-2.816-.661-2.816-1.762H57.05c0-4.176-2.722-6.56-7.966-6.56-4.996 0-7.716 2.052-7.716 5.497 0 3.45 2.721 5.502 7.717 5.502zm49.373-7.83c1.503 0 2.508.897 2.508 2.328 0 1.431-1.005 2.328-2.508 2.328-1.506 0-2.505-.896-2.505-2.328 0-1.43 1-2.328 2.505-2.328zm.017 7.829c4.938 0 7.621-2.052 7.621-5.501 0-3.445-2.683-5.498-7.62-5.498-4.938 0-7.636 2.053-7.636 5.498 0 3.448 2.698 5.5 7.635 5.5z" fill="#020F19"/><path fill-rule="evenodd" clip-rule="evenodd" d="M12.915 6.184h9.814c.76 0 1.38-.583 1.38-1.305V1.31c0-.725-.62-1.309-1.38-1.309h-9.814c-.76 0-1.378.584-1.378 1.308V4.88c0 .722.618 1.305 1.378 1.305zm7.121 7.694v3.568c0 .724.619 1.312 1.378 1.312h10.425c.763 0 1.377-.587 1.377-1.312v-3.568c0-.725-.614-1.306-1.377-1.306H21.414c-.759 0-1.378.58-1.378 1.306zM3.1 28.426h7.779c.762 0 1.379-.584 1.379-1.308V23.55c0-.725-.617-1.31-1.38-1.31H3.1c-.759 0-1.377.585-1.377 1.31v3.568c0 .725.618 1.308 1.377 1.308z" fill="#ABB910"/><path fill-rule="evenodd" clip-rule="evenodd" d="M34.546 19.533H20.744a1.718 1.718 0 01-1.449-.807h-.276v8.835c0 .906.771 1.64 1.724 1.64h1.328v-4.493c0-.726.62-1.31 1.379-1.31h4.726c.762 0 1.378.584 1.378 1.31v4.493h4.99c.951 0 1.726-.734 1.726-1.64v-8.835h-.279c-.298.473-.82.807-1.445.807zM13.227 29.2H1.722a1.72 1.72 0 01-1.46-.817H0v4.98C0 34.27.773 35 1.722 35h11.504c.952 0 1.725-.731 1.725-1.637v-4.98h-.266a1.71 1.71 0 01-1.458.817z" fill="#ABB910"/><path fill-rule="evenodd" clip-rule="evenodd" d="M25.123 11.795V6.153h-.273a1.706 1.706 0 01-1.451.805H10.567a1.709 1.709 0 01-1.447-.805h-.274v15.312h6.415c.951 0 1.722.73 1.722 1.637v2.232h1.02V13.432c0-.904.77-1.637 1.72-1.637h5.4z" fill="#ABB910"/></svg>