<svg width="39" height="38" fill="none" xmlns="http://www.w3.org/2000/svg"><path d="M19.53 9.833c-.501 0-.981.193-1.335.537-.354.344-.553.81-.553 1.296V19c0 .486.199.952.553 1.296.354.344.834.537 1.334.537.5 0 .981-.193 1.335-.537.354-.344.553-.81.553-1.296v-7.334c0-.486-.2-.952-.553-1.296a1.916 1.916 0 00-1.335-.537zm1.736 15.804a1.376 1.376 0 00-.17-.33l-.227-.275a1.906 1.906 0 00-.968-.496 1.939 1.939 0 00-1.089.11 2.19 2.19 0 00-.623.386 1.83 1.83 0 00-.407.597 1.785 1.785 0 00-.14.704c.003.24.054.476.151.697.085.227.22.434.396.605.176.171.39.302.623.385a1.818 1.818 0 001.435 0 1.664 1.664 0 001.019-.99c.096-.22.148-.457.15-.697a2.44 2.44 0 000-.366 1.16 1.16 0 00-.15-.33zM19.529.667a19.27 19.27 0 00-10.485 3.09c-3.103 2.014-5.522 4.877-6.95 8.227A17.847 17.847 0 001.02 22.576a18.178 18.178 0 005.165 9.387 19.051 19.051 0 009.663 5.018c3.66.707 7.455.344 10.904-1.043 3.448-1.388 6.396-3.738 8.47-6.753A17.963 17.963 0 0038.401 19a17.88 17.88 0 00-1.437-7.016 18.308 18.308 0 00-4.09-5.948 18.918 18.918 0 00-6.123-3.974A19.355 19.355 0 0019.529.667zm0 33c-2.986 0-5.905-.86-8.388-2.472a14.767 14.767 0 01-5.56-6.582 14.278 14.278 0 01-.86-8.474 14.542 14.542 0 014.132-7.51 15.24 15.24 0 017.73-4.014 15.511 15.511 0 018.724.835 15.012 15.012 0 016.776 5.401A14.37 14.37 0 0134.627 19c0 3.89-1.59 7.62-4.422 10.37-2.831 2.751-6.671 4.296-10.676 4.296z" fill="#FF8C00"/></svg>