<svg width="14" height="14" fill="none" xmlns="http://www.w3.org/2000/svg"><g clip-path="url(#clip0_2526_5001)"><path d="M1.167 8.164h8.859l-3.852 3.837a1.17 1.17 0 101.658 1.656l5.835-5.83c.107-.112.19-.243.245-.386a1.165 1.165 0 000-.886 1.165 1.165 0 00-.245-.385L7.832.34a1.167 1.167 0 00-1.658 0 1.166 1.166 0 000 1.655l3.852 3.837H1.167a1.168 1.168 0 00-.825 1.99c.219.22.516.342.825.342z" fill="#666F0F"/></g><defs><clipPath id="clip0_2526_5001"><path fill="#fff" d="M0 0h14v14H0z"/></clipPath></defs></svg>