<svg width="14" height="14" fill="none" xmlns="http://www.w3.org/2000/svg"><g clip-path="url(#clip0_2576_4948)"><path d="M12.584 4.326V.7a.7.7 0 10-1.4 0v3.626a2.1 2.1 0 000 3.948V13.3a.7.7 0 001.4 0V8.274a2.1 2.1 0 000-3.948zM11.884 7a.7.7 0 110-1.4.7.7 0 010 1.4zm-4.2 1.526V.7a.7.7 0 00-1.4 0v7.826a2.1 2.1 0 000 3.948v.826a.7.7 0 101.4 0v-.826a2.1 2.1 0 000-3.948zm-.7 2.674a.7.7 0 110-1.4.7.7 0 010 1.4zm-4.2-8.274V.7a.7.7 0 00-1.4 0v2.226a2.1 2.1 0 000 3.948V13.3a.7.7 0 101.4 0V6.874a2.1 2.1 0 000-3.948zm-.7 2.674a.7.7 0 110-1.4.7.7 0 010 1.4z" fill="#020F19"/></g><defs><clipPath id="clip0_2576_4948"><path fill="#fff" d="M0 0h14v14H0z"/></clipPath></defs></svg>