<svg width="200" height="50" fill="none" xmlns="http://www.w3.org/2000/svg"><path fill-rule="evenodd" clip-rule="evenodd" d="M91.007 17.648v-2.302h4.238c1.13 0 1.543.447 1.543 1.156 0 .808-.412 1.145-1.543 1.145h-4.238v.001zm0-7.543h3.692c1.073 0 1.373.343 1.373 1.05 0 .684-.3 1.047-1.373 1.047h-3.692v-2.097zm12.864 6.992c0-1.546-1.186-2.959-3.09-3.45 1.024-.344 2.233-1.786 2.233-3.09 0-2.675-1.594-3.957-5.785-3.957H84.087v14.718h11.984c5.155-.001 7.8-.71 7.8-4.22zm-32.65 17.357L68.297 26.8h-9.2v14.725h6.917v-5.532l-.886-5.783 4.137 11.315h3.913l4.13-11.315-.882 5.783v5.532h6.921V26.8h-9.203l-2.921 7.654zM181.483 26.8v4.666h5.79v10.06h6.943v-10.06H200V26.8h-18.517zm-85.38 11.425c-1.628 0-2.537-.547-2.537-1.471 0-.916.802-1.174 2.645-1.334 1.849-.153 3.475-.103 4.877-.759.024.132.024.24.024.371 0 1.882-1.897 3.193-5.01 3.193zm11.953-4.664c0-2.596-.36-4.243-2.118-5.555-1.436-1.044-4.186-1.596-8.294-1.596-6.972 0-10.332 1.204-10.635 4.976h7.137c.193-1.151 1.323-1.468 3.553-1.468 2.015 0 3.082.573 3.082 1.34 0 1.203-2.256.888-7.105 1.203-3.337.21-5.701.363-7.137 2.065-.522.629-.826 1.544-.826 2.644 0 3.224 2.535 4.826 7.607 4.826 3.499 0 5.92-.628 7.792-2.494.03.738.169 1.418.444 2.022h7.188v-.325c-.552-.387-.688-.987-.688-1.957v-5.68zm14.106 3.85c-2.096 0-3.552-1.251-3.552-3.25 0-2.014 1.456-3.274 3.552-3.274 2.121 0 3.554 1.26 3.554 3.273-.002 2-1.433 3.251-3.554 3.251zm2.312-11.001c-2.452 0-4.462.58-6.143 1.78l-.054-1.413h-6.586v19.515h6.918v-5.975c1.707 1.074 3.552 1.572 5.755 1.572 5.289 0 8.625-3.04 8.625-7.73 0-4.687-3.336-7.75-8.515-7.75zm32.407.47h-9.225l-5.075 4.688V26.88h-6.92v14.666h6.92v-3.321l3.057-2.387 3.692 5.686h8.267l-6.806-9.568 6.09-5.076zm8.324 5.662c.356-1.677 1.897-2.569 4.348-2.569 2.29 0 3.696.939 3.887 2.569h-8.235zm3.963-6.234c-7.132 0-11.022 2.93-11.022 7.852 0 4.923 3.89 7.86 11.022 7.86 6.425 0 10.223-1.75 11.241-4.974h-7.516c-.474.727-1.604 1.151-3.311 1.151-2.594 0-4.022-.945-4.022-2.512h14.99c.001-5.976-3.882-9.377-11.382-9.377zM117.26 10.685c2.12 0 3.552 1.255 3.552 3.27 0 1.99-1.433 3.25-3.552 3.25-2.095 0-3.559-1.26-3.559-3.25 0-2.015 1.463-3.27 3.559-3.27zm-3.559 9.429c1.709 1.07 3.559 1.574 5.761 1.574 5.29 0 8.627-3.045 8.627-7.733 0-4.682-3.337-7.75-8.517-7.75-2.452 0-4.464.577-6.142 1.776l-.056-1.411h-6.585v19.603h6.91v-6.06h.002zM70.505 9.764c2.286 0 3.692.946 3.886 2.572h-8.24c.356-1.678 1.898-2.571 4.354-2.571zm-.384 12.05c6.418 0 10.22-1.756 11.238-4.973h-7.522c-.47.734-1.599 1.15-3.308 1.15-2.588 0-4.024-.946-4.024-2.518H81.5c0-5.965-3.888-9.372-11.38-9.372-7.137 0-11.023 2.932-11.023 7.854 0 4.927 3.887 7.86 11.024 7.86zm70.53-11.183c2.148 0 3.584 1.28 3.584 3.325s-1.436 3.326-3.584 3.326c-2.151 0-3.578-1.28-3.578-3.326 0-2.044 1.427-3.325 3.578-3.325zm.025 11.183c7.055 0 10.887-2.93 10.887-7.858 0-4.922-3.832-7.854-10.887-7.854-7.053 0-10.908 2.932-10.908 7.854 0 4.926 3.855 7.858 10.908 7.858z" fill="#020F19"/><path fill-rule="evenodd" clip-rule="evenodd" d="M18.45 8.835h14.02c1.084 0 1.97-.834 1.97-1.865v-5.1C34.44.834 33.554 0 32.47 0H18.45c-1.085 0-1.968.835-1.968 1.87v5.1c-.002 1.031.883 1.865 1.968 1.865zm10.173 10.991v5.098c0 1.034.884 1.874 1.968 1.874h14.894c1.089 0 1.966-.84 1.966-1.874v-5.098c0-1.035-.877-1.865-1.966-1.865H30.59c-1.084-.001-1.968.829-1.968 1.865zM4.43 40.608h11.11c1.09 0 1.97-.834 1.97-1.869v-5.096c0-1.036-.88-1.873-1.97-1.873H4.43c-1.085 0-1.968.837-1.968 1.873v5.096c-.002 1.036.883 1.87 1.967 1.87z" fill="#ABB910"/><path fill-rule="evenodd" clip-rule="evenodd" d="M49.351 27.904H29.634c-.892 0-1.634-.478-2.07-1.154h-.394v12.622c0 1.295 1.102 2.343 2.463 2.343h1.896v-6.418c0-1.038.886-1.871 1.97-1.871h6.752c1.089 0 1.968.833 1.968 1.871v6.418h7.13c1.358 0 2.465-1.048 2.465-2.343V26.75h-.398a2.433 2.433 0 01-2.065 1.154zM18.896 41.715H2.46a2.458 2.458 0 01-2.084-1.167H0v7.114C0 48.957 1.104 50 2.46 50h16.434c1.36 0 2.465-1.044 2.465-2.338v-7.114h-.38a2.445 2.445 0 01-2.083 1.167z" fill="#ABB910"/><path fill-rule="evenodd" clip-rule="evenodd" d="M35.89 16.85V8.79h-.39a2.437 2.437 0 01-2.073 1.15H15.095a2.44 2.44 0 01-2.066-1.15h-.392v21.874h9.165c1.358 0 2.46 1.043 2.46 2.339v3.188h1.457V19.186c0-1.29 1.1-2.338 2.458-2.338h7.713z" fill="#ABB910"/></svg>