<svg width="40" height="40" fill="none" xmlns="http://www.w3.org/2000/svg"><path d="M22.357 20l5.488-5.489a1.666 1.666 0 00-2.357-2.356L20 17.643l-5.488-5.488a1.666 1.666 0 00-2.357 2.356L17.643 20l-5.488 5.488a1.667 1.667 0 002.357 2.357L20 22.356l5.488 5.489a1.667 1.667 0 002.357-2.357L22.357 20z" fill="#fff"/><path d="M31.785 8.215a16.666 16.666 0 10-23.57 23.57 16.666 16.666 0 0023.57-23.57zm-3.94 17.273a1.665 1.665 0 01-1.175 2.856 1.667 1.667 0 01-1.182-.499L20 22.357l-5.488 5.488a1.666 1.666 0 01-2.357-2.357L17.643 20l-5.488-5.488a1.667 1.667 0 012.357-2.357L20 17.643l5.488-5.488a1.667 1.667 0 012.357 2.357L22.357 20l5.488 5.488z" fill="#F26419"/></svg>