<svg width="14" height="14" fill="none" xmlns="http://www.w3.org/2000/svg"><path d="M6.441 13.834L7 13.009l.558.825a1.02 1.02 0 01-1.117 0z" fill="#ABB910"/><path d="M6.441 13.834L7 13.009c.558.825.56.824.56.824v-.001l.005-.003.015-.01.049-.033c.042-.028.1-.07.175-.122a17.794 17.794 0 002.424-2.09C11.515 10.234 13 8.218 13 5.907a5.863 5.863 0 00-1.757-4.177A6.048 6.048 0 007 0a6.048 6.048 0 00-4.243 1.73A5.862 5.862 0 001 5.907c0 2.31 1.484 4.328 2.773 5.667a17.8 17.8 0 002.598 2.212l.05.034.014.009.004.003.002.002z" fill="#ABB910"/><path d="M7 8a2 2 0 100-4 2 2 0 000 4z" fill="#F5F5F5"/></svg>